<?xml version="1.0" encoding="UTF-8" standalone="no"?>
<svg
   xmlns:dc="http://purl.org/dc/elements/1.1/"
   xmlns:cc="http://creativecommons.org/ns#"
   xmlns:rdf="http://www.w3.org/1999/02/22-rdf-syntax-ns#"
   xmlns:svg="http://www.w3.org/2000/svg"
   xmlns="http://www.w3.org/2000/svg"
   xmlns:sodipodi="http://sodipodi.sourceforge.net/DTD/sodipodi-0.dtd"
   xmlns:inkscape="http://www.inkscape.org/namespaces/inkscape"
   width="512"
   height="768"
   viewBox="0 0 512 768"
   version="1.1"
   id="svg8"
   inkscape:version="1.0.2 (e86c870879, 2021-01-15)"
   sodipodi:docname="overlay.svg">
  <defs
     id="defs2" />
  <sodipodi:namedview
     id="base"
     pagecolor="#ffffff"
     bordercolor="#666666"
     borderopacity="1.0"
     inkscape:pageopacity="0.0"
     inkscape:pageshadow="2"
     inkscape:zoom="2.0753833"
     inkscape:cx="319.28047"
     inkscape:cy="51.524411"
     inkscape:document-units="mm"
     inkscape:current-layer="layer1"
     showgrid="false"
     units="px"
     inkscape:pagecheckerboard="true"
     inkscape:window-width="1920"
     inkscape:window-height="1080"
     inkscape:window-x="1440"
     inkscape:window-y="0"
     inkscape:window-maximized="0"
     inkscape:document-rotation="0" />
  <metadata
     id="metadata5">
    <rdf:RDF>
      <cc:Work
         rdf:about="">
        <dc:format>image/svg+xml</dc:format>
        <dc:type
           rdf:resource="http://purl.org/dc/dcmitype/StillImage" />
        <dc:title></dc:title>
      </cc:Work>
    </rdf:RDF>
  </metadata>
  <g
     inkscape:label="Layer 1"
     inkscape:groupmode="layer"
     id="layer1"
     transform="translate(0,-93.798)">
    <g
       id="btnBack"
       transform="translate(0,15.998)">
      <rect
         style="opacity:1;fill:#ffffff;fill-opacity:0.75294;stroke:none;stroke-width:12.00006;stroke-linecap:butt;stroke-miterlimit:4;stroke-dasharray:none;stroke-dashoffset:0;stroke-opacity:1"
         id="btnBack.face"
         width="170.66"
         height="32"
         x="0"
         y="813.8" />
      <path
         inkscape:connector-curvature="0"
         id="btnBack.label"
         d="m 89.84,818.93 -10.873,10.87 10.873,10.87 2.545,-2.54 -6.527,-6.52 H 105.51 V 828 H 85.858 l 6.527,-6.53 z"
         style="color:#000000;font-style:normal;font-variant:normal;font-weight:normal;font-stretch:normal;font-size:medium;line-height:normal;font-family:sans-serif;font-variant-ligatures:normal;font-variant-position:normal;font-variant-caps:normal;font-variant-numeric:normal;font-variant-alternates:normal;font-feature-settings:normal;text-indent:0;text-align:start;text-decoration:none;text-decoration-line:none;text-decoration-style:solid;text-decoration-color:#000000;letter-spacing:normal;word-spacing:normal;text-transform:none;writing-mode:lr-tb;direction:ltr;text-orientation:mixed;dominant-baseline:auto;baseline-shift:baseline;text-anchor:start;white-space:normal;shape-padding:0;clip-rule:nonzero;display:inline;overflow:visible;visibility:visible;opacity:1;isolation:auto;mix-blend-mode:normal;color-interpolation:sRGB;color-interpolation-filters:linearRGB;solid-color:#000000;solid-opacity:1;vector-effect:none;fill:#333333;fill-opacity:1;fill-rule:nonzero;stroke:none;stroke-width:12;stroke-linecap:butt;stroke-linejoin:miter;stroke-miterlimit:4;stroke-dasharray:none;stroke-dashoffset:0;stroke-opacity:1;color-rendering:auto;image-rendering:auto;shape-rendering:auto;text-rendering:auto;enable-background:accumulate" />
    </g>
    <g
       id="btnHome"
       transform="translate(0,15.998)">
      <rect
         y="813.8"
         x="170.67"
         height="32"
         width="170.66"
         id="btnHome.face"
         style="opacity:1;fill:#ffffff;fill-opacity:0.75294;stroke:none;stroke-width:12.00006;stroke-linecap:butt;stroke-miterlimit:4;stroke-dasharray:none;stroke-dashoffset:0;stroke-opacity:1" />
      <path
         inkscape:connector-curvature="0"
         id="btnHome.Label"
         d="m 256,818.4 c -6.28,0 -11.4,5.13 -11.4,11.4 0,6.28 5.12,11.4 11.4,11.4 6.27,0 11.4,-5.12 11.4,-11.4 0,-6.27 -5.13,-11.4 -11.4,-11.4 z m 0,3.6 c 4.33,0 7.8,3.48 7.8,7.81 0,4.32 -3.47,7.8 -7.8,7.8 -4.33,0 -7.8,-3.48 -7.8,-7.8 0,-4.33 3.47,-7.81 7.8,-7.81 z"
         style="color:#000000;font-style:normal;font-variant:normal;font-weight:normal;font-stretch:normal;font-size:medium;line-height:normal;font-family:sans-serif;font-variant-ligatures:normal;font-variant-position:normal;font-variant-caps:normal;font-variant-numeric:normal;font-variant-alternates:normal;font-feature-settings:normal;text-indent:0;text-align:start;text-decoration:none;text-decoration-line:none;text-decoration-style:solid;text-decoration-color:#000000;letter-spacing:normal;word-spacing:normal;text-transform:none;writing-mode:lr-tb;direction:ltr;text-orientation:mixed;dominant-baseline:auto;baseline-shift:baseline;text-anchor:start;white-space:normal;shape-padding:0;clip-rule:nonzero;display:inline;overflow:visible;visibility:visible;opacity:1;isolation:auto;mix-blend-mode:normal;color-interpolation:sRGB;color-interpolation-filters:linearRGB;solid-color:#000000;solid-opacity:1;vector-effect:none;fill:#333333;fill-opacity:1;fill-rule:nonzero;stroke:none;stroke-width:12;stroke-linecap:butt;stroke-linejoin:miter;stroke-miterlimit:4;stroke-dasharray:none;stroke-dashoffset:0;stroke-opacity:1;color-rendering:auto;image-rendering:auto;shape-rendering:auto;text-rendering:auto;enable-background:accumulate" />
    </g>
    <g
       id="btnMenu">
      <rect
         y="829.8"
         x="341.34"
         height="32"
         width="170.66"
         id="btnMenu.face"
         style="opacity:1;fill:#ffffff;fill-opacity:0.75294;stroke:none;stroke-width:12.00006;stroke-linecap:butt;stroke-miterlimit:4;stroke-dasharray:none;stroke-dashoffset:0;stroke-opacity:1" />
      <path
         style="color:#000000;font-style:normal;font-variant:normal;font-weight:normal;font-stretch:normal;font-size:medium;line-height:normal;font-family:sans-serif;font-variant-ligatures:normal;font-variant-position:normal;font-variant-caps:normal;font-variant-numeric:normal;font-variant-alternates:normal;font-feature-settings:normal;text-indent:0;text-align:start;text-decoration:none;text-decoration-line:none;text-decoration-style:solid;text-decoration-color:#000000;letter-spacing:normal;word-spacing:normal;text-transform:none;writing-mode:lr-tb;direction:ltr;text-orientation:mixed;dominant-baseline:auto;baseline-shift:baseline;text-anchor:start;white-space:normal;shape-padding:0;clip-rule:nonzero;display:inline;overflow:visible;visibility:visible;opacity:1;isolation:auto;mix-blend-mode:normal;color-interpolation:sRGB;color-interpolation-filters:linearRGB;solid-color:#000000;solid-opacity:1;vector-effect:none;fill:#333333;fill-opacity:1;fill-rule:nonzero;stroke:none;stroke-width:3.5;stroke-linecap:butt;stroke-linejoin:miter;stroke-miterlimit:4;stroke-dasharray:none;stroke-dashoffset:0;stroke-opacity:1;color-rendering:auto;image-rendering:auto;shape-rendering:auto;text-rendering:auto;enable-background:accumulate"
         d="m 416.92,836.05 v 1.75 17.75 h 19.5 v -19.5 z m 3.5,3.5 h 12.5 v 12.5 h -12.5 z"
         id="btnMenu.label"
         inkscape:connector-curvature="0" />
    </g>
    <rect
       style="opacity:1;fill:#ffffff;fill-opacity:0.75294;stroke:none;stroke-width:12.00003;stroke-linecap:butt;stroke-miterlimit:4;stroke-dasharray:none;stroke-dashoffset:0;stroke-opacity:1"
       id="rect846"
       width="512"
       height="32"
       x="0"
       y="93.798" />
    <g
       id="g1018">
      <path
         style="fill:#333333;stroke:none;stroke-width:1px;stroke-linecap:butt;stroke-linejoin:miter;stroke-opacity:1"
         d="m 398.5,104.3 -5,11 h 6 l 5,-11 z"
         id="batteryIcon.75"
         inkscape:connector-curvature="0"
         sodipodi:nodetypes="ccccc" />
      <path
         sodipodi:nodetypes="ccccc"
         inkscape:connector-curvature="0"
         id="batteryIcon.100"
         d="m 408.5,115.3 v -11 h -3 l -5,11 z"
         style="fill:#333333;stroke:none;stroke-width:1px;stroke-linecap:butt;stroke-linejoin:miter;stroke-opacity:1" />
      <path
         sodipodi:nodetypes="ccccc"
         inkscape:connector-curvature="0"
         id="batteryIcon.50"
         d="m 391.5,104.3 -5,11 h 6 l 5,-11 z"
         style="fill:#333333;stroke:none;stroke-width:1px;stroke-linecap:butt;stroke-linejoin:miter;stroke-opacity:1" />
      <path
         style="fill:#333333;stroke:none;stroke-width:1px;stroke-linecap:butt;stroke-linejoin:miter;stroke-opacity:1"
         d="m 382.5,104.3 v 11 h 3 l 5,-11 z"
         id="batteryIcon.25"
         inkscape:connector-curvature="0"
         sodipodi:nodetypes="ccccc" />
      <path
         sodipodi:nodetypes="cccccccccccccccccc"
         inkscape:connector-curvature="0"
         id="rect860"
         d="m 378.5,100.3 v 1.5 17.5 h 34 v -5.5 h 3 v -8 h -3 v -5.5 z m 3,3 h 28 v 2.5 1.5 6.5 2.5 h -28 z"
         style="color:#000000;font-style:normal;font-variant:normal;font-weight:normal;font-stretch:normal;font-size:medium;line-height:normal;font-family:sans-serif;font-variant-ligatures:normal;font-variant-position:normal;font-variant-caps:normal;font-variant-numeric:normal;font-variant-alternates:normal;font-feature-settings:normal;text-indent:0;text-align:start;text-decoration:none;text-decoration-line:none;text-decoration-style:solid;text-decoration-color:#000000;letter-spacing:normal;word-spacing:normal;text-transform:none;writing-mode:lr-tb;direction:ltr;text-orientation:mixed;dominant-baseline:auto;baseline-shift:baseline;text-anchor:start;white-space:normal;shape-padding:0;clip-rule:nonzero;display:inline;overflow:visible;visibility:visible;opacity:1;isolation:auto;mix-blend-mode:normal;color-interpolation:sRGB;color-interpolation-filters:linearRGB;solid-color:#000000;solid-opacity:1;vector-effect:none;fill:#333333;fill-opacity:1;fill-rule:nonzero;stroke:none;stroke-width:6;stroke-linecap:butt;stroke-linejoin:miter;stroke-miterlimit:4;stroke-dasharray:none;stroke-dashoffset:0;stroke-opacity:1;color-rendering:auto;image-rendering:auto;shape-rendering:auto;text-rendering:auto;enable-background:accumulate" />
    </g>
    <text
       xml:space="preserve"
       x="437.20999"
       y="117.56"
       id="clock.digital"
       style="font-style:normal;font-variant:normal;font-weight:normal;font-stretch:normal;font-size:21.3333px;font-family:sans-serif;-inkscape-font-specification:'sans-serif, Normal';font-variant-ligatures:normal;font-variant-caps:normal;font-variant-numeric:normal;font-feature-settings:normal;text-align:start;writing-mode:lr-tb;text-anchor:start;fill:#333333;stroke-width:1"><tspan
         sodipodi:role="line"
         id="tspan920"
         x="437.20999"
         y="117.56"
         style="stroke-width:1">19:30</tspan></text>
    <g
       id="g5899"
       transform="translate(-2)">
      <path
         style="color:#000000;font-style:normal;font-variant:normal;font-weight:normal;font-stretch:normal;font-size:medium;line-height:normal;font-family:sans-serif;font-variant-ligatures:normal;font-variant-position:normal;font-variant-caps:normal;font-variant-numeric:normal;font-variant-alternates:normal;font-feature-settings:normal;text-indent:0;text-align:start;text-decoration:none;text-decoration-line:none;text-decoration-style:solid;text-decoration-color:#000000;letter-spacing:normal;word-spacing:normal;text-transform:none;writing-mode:lr-tb;direction:ltr;text-orientation:mixed;dominant-baseline:auto;baseline-shift:baseline;text-anchor:start;white-space:normal;shape-padding:0;clip-rule:nonzero;display:inline;overflow:visible;visibility:visible;opacity:1;isolation:auto;mix-blend-mode:normal;color-interpolation:sRGB;color-interpolation-filters:linearRGB;solid-color:#000000;solid-opacity:1;vector-effect:none;fill:#333333;fill-opacity:1;fill-rule:nonzero;stroke:none;stroke-width:4;stroke-linecap:butt;stroke-linejoin:miter;stroke-miterlimit:4;stroke-dasharray:none;stroke-dashoffset:0;stroke-opacity:1;color-rendering:auto;image-rendering:auto;shape-rendering:auto;text-rendering:auto;enable-background:accumulate"
         d="m 349.86,99.77 c -6.63,0 -12.99,2.64 -17.67,7.33 l 2.82,2.82 c 3.94,-3.93 9.28,-6.15 14.85,-6.15 5.57,0 10.91,2.21 14.85,6.15 l 2.83,-2.82 c -4.69,-4.69 -11.05,-7.328 -17.68,-7.33 z"
         id="signalIcon.100"
         inkscape:connector-curvature="0" />
      <path
         style="color:#000000;font-style:normal;font-variant:normal;font-weight:normal;font-stretch:normal;font-size:medium;line-height:normal;font-family:sans-serif;font-variant-ligatures:normal;font-variant-position:normal;font-variant-caps:normal;font-variant-numeric:normal;font-variant-alternates:normal;font-feature-settings:normal;text-indent:0;text-align:start;text-decoration:none;text-decoration-line:none;text-decoration-style:solid;text-decoration-color:#000000;letter-spacing:normal;word-spacing:normal;text-transform:none;writing-mode:lr-tb;direction:ltr;text-orientation:mixed;dominant-baseline:auto;baseline-shift:baseline;text-anchor:start;white-space:normal;shape-padding:0;clip-rule:nonzero;display:inline;overflow:visible;visibility:visible;opacity:1;isolation:auto;mix-blend-mode:normal;color-interpolation:sRGB;color-interpolation-filters:linearRGB;solid-color:#000000;solid-opacity:1;vector-effect:none;fill:#333333;fill-opacity:1;fill-rule:nonzero;stroke:none;stroke-width:4;stroke-linecap:butt;stroke-linejoin:miter;stroke-miterlimit:4;stroke-dasharray:none;stroke-dashoffset:0;stroke-opacity:1;color-rendering:auto;image-rendering:auto;shape-rendering:auto;text-rendering:auto;enable-background:accumulate"
         d="m 349.86,106.77 c -4.77,0 -9.35,1.9 -12.73,5.28 l 2.83,2.82 c 2.63,-2.62 6.19,-4.1 9.9,-4.1 3.71,0 7.27,1.48 9.9,4.1 l 2.82,-2.82 c -3.37,-3.38 -7.95,-5.28 -12.72,-5.28 z"
         id="signalIcon.66"
         inkscape:connector-curvature="0" />
      <path
         style="color:#000000;font-style:normal;font-variant:normal;font-weight:normal;font-stretch:normal;font-size:medium;line-height:normal;font-family:sans-serif;font-variant-ligatures:normal;font-variant-position:normal;font-variant-caps:normal;font-variant-numeric:normal;font-variant-alternates:normal;font-feature-settings:normal;text-indent:0;text-align:start;text-decoration:none;text-decoration-line:none;text-decoration-style:solid;text-decoration-color:#000000;letter-spacing:normal;word-spacing:normal;text-transform:none;writing-mode:lr-tb;direction:ltr;text-orientation:mixed;dominant-baseline:auto;baseline-shift:baseline;text-anchor:start;white-space:normal;shape-padding:0;clip-rule:nonzero;display:inline;overflow:visible;visibility:visible;opacity:1;isolation:auto;mix-blend-mode:normal;color-interpolation:sRGB;color-interpolation-filters:linearRGB;solid-color:#000000;solid-opacity:1;vector-effect:none;fill:#333333;fill-opacity:1;fill-rule:nonzero;stroke:none;stroke-width:4;stroke-linecap:butt;stroke-linejoin:miter;stroke-miterlimit:4;stroke-dasharray:none;stroke-dashoffset:0;stroke-opacity:1;color-rendering:auto;image-rendering:auto;shape-rendering:auto;text-rendering:auto;enable-background:accumulate"
         d="m 349.86,113.77 c -2.92,0 -5.72,1.16 -7.78,3.23 l 2.84,2.82 c 1.31,-1.31 3.08,-2.05 4.94,-2.05 1.85,0 3.63,0.74 4.94,2.05 l 2.83,-2.82 c -2.06,-2.07 -4.85,-3.23 -7.77,-3.23 v 0 z"
         id="signal.icon.33"
         inkscape:connector-curvature="0" />
    </g>
    <path
       id="keyboardGrabIcon"
       style="color:#000000;font-style:normal;font-variant:normal;font-weight:normal;font-stretch:normal;font-size:medium;line-height:normal;font-family:sans-serif;font-variant-ligatures:normal;font-variant-position:normal;font-variant-caps:normal;font-variant-numeric:normal;font-variant-alternates:normal;font-variant-east-asian:normal;font-feature-settings:normal;font-variation-settings:normal;text-indent:0;text-align:start;text-decoration:none;text-decoration-line:none;text-decoration-style:solid;text-decoration-color:#000000;letter-spacing:normal;word-spacing:normal;text-transform:none;writing-mode:lr-tb;direction:ltr;text-orientation:mixed;dominant-baseline:auto;baseline-shift:baseline;text-anchor:start;white-space:normal;shape-padding:0;shape-margin:0;inline-size:0;clip-rule:nonzero;display:inline;overflow:visible;visibility:visible;opacity:1;isolation:auto;mix-blend-mode:normal;color-interpolation:sRGB;color-interpolation-filters:linearRGB;solid-color:#000000;solid-opacity:1;vector-effect:none;fill:#333333;fill-opacity:1;fill-rule:nonzero;stroke:none;stroke-linecap:round;stroke-linejoin:round;stroke-miterlimit:4;stroke-dasharray:none;stroke-dashoffset:0;stroke-opacity:1;color-rendering:auto;image-rendering:auto;shape-rendering:auto;text-rendering:auto;enable-background:accumulate;stop-color:#000000;stop-opacity:1"
       d="m 302.32031,96.614998 a 2.0002,2.0002 0 0 0 -1.08789,0.371094 c -3.06301,2.187488 -6.41261,2.707258 -10.19531,3.289058 a 2.0002,2.0002 0 0 0 -0.0332,0.006 2,2 0 0 0 -0.084,0.0176 2.0002,2.0002 0 0 0 -0.006,0.002 2,2 0 0 0 -0.0703,0.0156 2.0002,2.0002 0 0 0 -0.0723,0.0195 2,2 0 0 0 -0.0371,0.0117 2.0002,2.0002 0 0 0 -0.0918,0.0332 2.0002,2.0002 0 0 0 -0.002,0 2,2 0 0 0 -0.004,0.002 2.0002,2.0002 0 0 0 -0.0762,0.0312 2,2 0 0 0 -0.0879,0.0391 2,2 0 0 0 -0.10547,0.0547 2,2 0 0 0 -0.10352,0.0625 2,2 0 0 0 -0.0976,0.0664 2,2 0 0 0 -0.0937,0.0723 2,2 0 0 0 -0.0781,0.0684 2.0002,2.0002 0 0 0 -0.0215,0.0195 2,2 0 0 0 -0.0293,0.0273 2.0002,2.0002 0 0 0 -0.0449,0.0469 2,2 0 0 0 -0.0801,0.0879 2,2 0 0 0 -0.0742,0.0937 2,2 0 0 0 -0.18164,0.28711 l -4.58008,8.9375 a 2.0002,2.0002 0 0 0 0.69727,2.59375 l 15.10547,9.73437 0.0351,0.0234 a 2,2 0 0 0 0.15235,0.0957 2,2 0 0 0 0.32422,0.14649 2,2 0 0 0 0.22851,0.0645 2,2 0 0 0 0.23633,0.0371 2.0002,2.0002 0 0 0 0.11719,0.008 2,2 0 0 0 0.0644,0.002 2.0002,2.0002 0 0 0 0.0547,0 2,2 0 0 0 0.0273,-0.002 2,2 0 0 0 0.0742,-0.004 2,2 0 0 0 0.0176,0 2.0002,2.0002 0 0 0 0.0176,-0.002 2,2 0 0 0 0.0898,-0.01 2,2 0 0 0 0.0117,-0.002 2.0002,2.0002 0 0 0 0.0625,-0.01 2,2 0 0 0 0.0176,-0.004 2.0002,2.0002 0 0 0 0.0781,-0.0156 2.0002,2.0002 0 0 0 0.0195,-0.004 2,2 0 0 0 0.0547,-0.0137 2.0002,2.0002 0 0 0 0.0605,-0.0176 2,2 0 0 0 0.0527,-0.0176 2,2 0 0 0 0.0937,-0.0332 2,2 0 0 0 0.0176,-0.006 2.0002,2.0002 0 0 0 0.0215,-0.01 2,2 0 0 0 0.0879,-0.0391 2.0002,2.0002 0 0 0 0.0293,-0.0137 l 0.0293,-0.0137 a 2,2 0 0 0 0.0117,-0.006 l 17.35547,-8.47656 0.0215,-0.01 a 2,2 0 0 0 0.0254,-0.0137 2,2 0 0 0 0.0801,-0.041 2,2 0 0 0 0.0254,-0.0137 2,2 0 0 0 0.0195,-0.0117 2,2 0 0 0 0.10156,-0.0625 2,2 0 0 0 0.0781,-0.0547 2,2 0 0 0 0.0176,-0.0137 2,2 0 0 0 0.0762,-0.0586 2,2 0 0 0 0.0176,-0.0156 2,2 0 0 0 0.0723,-0.0645 2,2 0 0 0 0.0156,-0.0137 2,2 0 0 0 0.0684,-0.0684 2,2 0 0 0 0.0156,-0.0176 2,2 0 0 0 0.0645,-0.0723 2,2 0 0 0 0.0137,-0.0176 2,2 0 0 0 0.0586,-0.0762 2,2 0 0 0 0.0137,-0.0176 2,2 0 0 0 0.0547,-0.0781 2,2 0 0 0 0.0625,-0.10156 2,2 0 0 0 0.0117,-0.0195 2,2 0 0 0 0.0449,-0.0859 2,2 0 0 0 0.01,-0.0195 2,2 0 0 0 0.01,-0.0195 2,2 0 0 0 0.0391,-0.0898 2,2 0 0 0 0.0352,-0.0898 2,2 0 0 0 0.008,-0.0215 2,2 0 0 0 0.0293,-0.0918 2,2 0 0 0 0.006,-0.0215 2,2 0 0 0 0.0234,-0.0937 2,2 0 0 0 0.0195,-0.0957 2,2 0 0 0 0.004,-0.0195 2,2 0 0 0 0.004,-0.0234 2,2 0 0 0 0.0117,-0.0957 2,2 0 0 0 0.002,-0.0215 2,2 0 0 0 0,-0.01 2,2 0 0 0 0.008,-0.10937 2,2 0 0 0 0,-0.11914 2,2 0 0 0 -0.004,-0.0957 2,2 0 0 0 -0.002,-0.0234 2,2 0 0 0 -0.002,-0.0195 2,2 0 0 0 -0.0117,-0.0977 2,2 0 0 0 -0.0156,-0.0957 2,2 0 0 0 -0.004,-0.0215 2,2 0 0 0 -0.0215,-0.0937 2,2 0 0 0 -0.006,-0.0215 2,2 0 0 0 -0.0274,-0.0937 2,2 0 0 0 -0.008,-0.0215 2,2 0 0 0 -0.0332,-0.0898 2,2 0 0 0 -0.008,-0.0215 2,2 0 0 0 -0.0371,-0.0879 2,2 0 0 0 -0.01,-0.0215 2,2 0 0 0 -0.0117,-0.0234 2,2 0 0 0 -0.043,-0.082 2,2 0 0 0 -0.0117,-0.0215 2,2 0 0 0 -0.0117,-0.0215 l -5.31055,-9.17969 -0.004,-0.008 a 2,2 0 0 0 -0.0117,-0.0195 2.0002,2.0002 0 0 0 -0.0508,-0.082 2,2 0 0 0 -0.0117,-0.0195 2.0002,2.0002 0 0 0 -0.0547,-0.0801 2,2 0 0 0 -0.0137,-0.0176 2.0002,2.0002 0 0 0 -0.0605,-0.0762 2,2 0 0 0 -0.0137,-0.0156 2.0002,2.0002 0 0 0 -0.0645,-0.0723 2,2 0 0 0 -0.0156,-0.0156 2.0002,2.0002 0 0 0 -0.0684,-0.0703 2,2 0 0 0 -0.0156,-0.0137 2.0002,2.0002 0 0 0 -0.0723,-0.0644 2,2 0 0 0 -0.0176,-0.0137 2.0002,2.0002 0 0 0 -0.0762,-0.0605 2,2 0 0 0 -0.0176,-0.0137 2.0002,2.0002 0 0 0 -0.0801,-0.0547 2,2 0 0 0 -0.0176,-0.0117 2.0002,2.0002 0 0 0 -0.084,-0.0508 2,2 0 0 0 -0.0176,-0.01 2.0002,2.0002 0 0 0 -0.0859,-0.0469 2,2 0 0 0 -0.0195,-0.01 2.0002,2.0002 0 0 0 -0.0898,-0.0391 2,2 0 0 0 -0.0195,-0.008 2,2 0 0 0 -0.0254,-0.0117 l -11.67578,-4.640627 a 2.0002,2.0002 0 0 0 -0.81446,-0.140625 z m 0.22657,4.210942 6.75976,2.6875 c -2.40871,1.18911 -4.74443,2.07049 -6.88476,2.15625 l -5.0254,-2.56836 c 1.72098,-0.47798 3.44891,-1.226 5.1504,-2.27539 z m -10.33594,4.11523 7.8125,3.99609 -0.0469,8.38868 -10.60937,-6.83594 z m 21.08984,0.97461 3.29102,5.69141 -12.61719,6.16211 0.0469,-8.21094 c 3.19093,-0.44916 6.26485,-1.88164 9.2793,-3.64258 z" />
  </g>
</svg>
