<?xml version="1.0" encoding="UTF-8" standalone="no"?>
<svg
   xmlns:dc="http://purl.org/dc/elements/1.1/"
   xmlns:cc="http://creativecommons.org/ns#"
   xmlns:rdf="http://www.w3.org/1999/02/22-rdf-syntax-ns#"
   xmlns:svg="http://www.w3.org/2000/svg"
   xmlns="http://www.w3.org/2000/svg"
   xmlns:sodipodi="http://sodipodi.sourceforge.net/DTD/sodipodi-0.dtd"
   xmlns:inkscape="http://www.inkscape.org/namespaces/inkscape"
   width="2048"
   height="2048"
   viewBox="0 0 541.88 541.88"
   version="1.1"
   id="svg8"
   inkscape:version="1.0.2 (e86c870879, 2021-01-15)"
   sodipodi:docname="efb-loading.svg"
   inkscape:export-filename="/home/tobias/flightgear/fgdata-standalone/Aircraft/E-jet-family/Models/EFB/loading.png"
   inkscape:export-xdpi="96"
   inkscape:export-ydpi="96">
  <defs
     id="defs2" />
  <sodipodi:namedview
     id="base"
     pagecolor="#ffffff"
     bordercolor="#666666"
     borderopacity="1.0"
     inkscape:pageopacity="0.0"
     inkscape:pageshadow="2"
     inkscape:zoom="0.33208321"
     inkscape:cx="971.73087"
     inkscape:cy="984.21593"
     inkscape:document-units="mm"
     inkscape:current-layer="layer1"
     showgrid="false"
     units="px"
     inkscape:window-width="1920"
     inkscape:window-height="1080"
     inkscape:window-x="1440"
     inkscape:window-y="0"
     inkscape:window-maximized="0"
     inkscape:document-rotation="0" />
  <metadata
     id="metadata5">
    <rdf:RDF>
      <cc:Work
         rdf:about="">
        <dc:format>image/svg+xml</dc:format>
        <dc:type
           rdf:resource="http://purl.org/dc/dcmitype/StillImage" />
        <dc:title></dc:title>
      </cc:Work>
    </rdf:RDF>
  </metadata>
  <g
     inkscape:label="Layer 1"
     inkscape:groupmode="layer"
     id="layer1"
     transform="translate(0,244.88)">
    <g
       id="g1590">
      <path
         id="path833"
         style="fill:#f9f9f9;stroke:#999999;stroke-width:2.6459;stroke-linecap:round;stroke-linejoin:round;stroke-miterlimit:4;stroke-dasharray:none;stroke-opacity:1"
         d="m 245.08401,-150.06422 v 25.60607 a 25.85594,25.606055 0 0 0 12.92797,22.17558 25.85594,25.606055 0 0 0 6.81276,2.703762 c 0.57198,0.39591 1.06593,0.90819 1.42664,1.52693 0.86599,1.48547 0.86599,3.31565 0,4.80113 -0.36071,0.61873 -0.85448,1.13101 -1.42664,1.52692 a 25.85594,25.606055 0 0 0 -6.81276,2.70377 25.85594,25.606055 0 0 0 -12.92797,22.175564 v 25.60605 h 51.71188 v -25.60605 a 25.85594,25.606055 0 0 0 -12.92795,-22.175564 25.85594,25.606055 0 0 0 -6.81276,-2.70377 c -0.57216,-0.39591 -1.06592,-0.90819 -1.42663,-1.52692 -0.86599,-1.48548 -0.86599,-3.31566 0,-4.80113 0.36071,-0.61874 0.85466,-1.13102 1.42663,-1.52693 a 25.85594,25.606055 0 0 0 6.81276,-2.703762 25.85594,25.606055 0 0 0 12.92795,-22.17558 v -25.60607 z" />
      <path
         id="rect856"
         style="fill:#cccccc;stroke:none;stroke-width:0.26459;stroke-linecap:round;stroke-linejoin:round"
         d="m 246.7,-130.85966 v 6.40151 c 9e-5,8.57633 4.62018,16.50114 12.11998,20.78931 2.47805,1.41686 5.14711,2.35448 7.87957,2.83505 2.36158,1.268992 2.50574,3.221832 2.62442,5.182472 l -1.2704,30.824485 C 263.64226,-62.514199 246.7,-58.842602 246.7,-58.842602 v 16.003784 h 48.47989 v -16.003784 c -6.44689,-1.888614 -13.51674,-1.584742 -19.33987,-5.665404 l -3.28406,-31.143312 c 0.11574,-1.98592 0.58675,-3.84076 2.49658,-5.162152 2.77701,-0.47326 5.49079,-1.41645 8.0074,-2.85537 7.49977,-4.28817 12.11989,-12.21298 12.11995,-20.78931 v -6.40151 c -8.95218,0 -18.37225,4.90602 -24.23993,4.80114 -5.86767,-0.10488 -15.28522,-4.80114 -24.23996,-4.80114 z" />
      <rect
         style="fill:#b3b3b3;stroke:#999999;stroke-width:2.6459;stroke-linecap:round;stroke-linejoin:round;stroke-miterlimit:4;stroke-dasharray:none;stroke-opacity:1"
         id="rect864"
         width="71.103828"
         height="12.803028"
         x="235.38805"
         y="-158.06599"
         rx="4.8479891"
         ry="4.8011351" />
      <rect
         style="fill:#b3b3b3;stroke:#999999;stroke-width:2.6459;stroke-linecap:round;stroke-linejoin:round;stroke-miterlimit:4;stroke-dasharray:none;stroke-opacity:1"
         id="rect866"
         width="71.103828"
         height="12.803028"
         x="235.38805"
         y="-46.03957"
         rx="4.8479891"
         ry="4.8011351" />
    </g>
    <g
       id="g1595">
      <text
         xml:space="preserve"
         style="font-style:normal;font-variant:normal;font-weight:normal;font-stretch:normal;font-size:0.471922px;line-height:0;font-family:sans-serif;-inkscape-font-specification:'sans-serif, Normal';font-variant-ligatures:normal;font-variant-caps:normal;font-variant-numeric:normal;font-feature-settings:normal;text-align:start;letter-spacing:0px;word-spacing:0px;writing-mode:lr-tb;text-anchor:start;fill:#000000;fill-opacity:1;stroke:none;stroke-width:0.264591"
         x="270.25125"
         y="63.829113"
         id="text4520"
         transform="scale(1.0008954,0.9991054)"><tspan
           sodipodi:role="line"
           x="270.25125"
           y="63.829113"
           style="font-style:normal;font-variant:normal;font-weight:normal;font-stretch:normal;font-size:52.9184px;line-height:1.5em;font-family:'Liberation Sans';-inkscape-font-specification:'Liberation Sans, Normal';font-variant-ligatures:normal;font-variant-caps:normal;font-variant-numeric:normal;font-feature-settings:normal;text-align:center;writing-mode:lr-tb;text-anchor:middle;fill:#000000;stroke-width:0.264591"
           id="tspan4522">Loading</tspan><tspan
           sodipodi:role="line"
           x="270.25125"
           y="143.20671"
           style="font-style:normal;font-variant:normal;font-weight:normal;font-stretch:normal;font-size:52.9184px;line-height:1.5em;font-family:'Liberation Sans';-inkscape-font-specification:'Liberation Sans, Normal';font-variant-ligatures:normal;font-variant-caps:normal;font-variant-numeric:normal;font-feature-settings:normal;text-align:center;writing-mode:lr-tb;text-anchor:middle;fill:#000000;stroke-width:0.264591"
           id="tspan4566">...</tspan></text>
    </g>
  </g>
</svg>
