<?xml version="1.0" encoding="UTF-8" standalone="no"?>
<svg
   xmlns:dc="http://purl.org/dc/elements/1.1/"
   xmlns:cc="http://creativecommons.org/ns#"
   xmlns:rdf="http://www.w3.org/1999/02/22-rdf-syntax-ns#"
   xmlns:svg="http://www.w3.org/2000/svg"
   xmlns="http://www.w3.org/2000/svg"
   xmlns:sodipodi="http://sodipodi.sourceforge.net/DTD/sodipodi-0.dtd"
   xmlns:inkscape="http://www.inkscape.org/namespaces/inkscape"
   id="svg2226"
   sodipodi:version="0.32"
   inkscape:version="1.0.2 (e86c870879, 2021-01-15)"
   width="64"
   height="64"
   version="1.0"
   sodipodi:docname="htmltest-icon.svg"
   inkscape:output_extension="org.inkscape.output.svg.inkscape"
   inkscape:export-filename="/home/tobias/flightgear/fgdata-standalone/Aircraft/E-jet-family/Models/EFB/icons/maps.png"
   inkscape:export-xdpi="96"
   inkscape:export-ydpi="96">
  <metadata
     id="metadata2231">
    <rdf:RDF>
      <cc:Work
         rdf:about="">
        <dc:format>image/svg+xml</dc:format>
        <dc:type
           rdf:resource="http://purl.org/dc/dcmitype/StillImage" />
        <dc:title></dc:title>
      </cc:Work>
    </rdf:RDF>
  </metadata>
  <defs
     id="defs2229">
    <filter
       style="color-interpolation-filters:sRGB;"
       inkscape:label="Blur"
       id="filter2384">
      <feGaussianBlur
         stdDeviation="2 2"
         result="blur"
         id="feGaussianBlur2382" />
    </filter>
  </defs>
  <sodipodi:namedview
     inkscape:window-height="882"
     inkscape:window-width="1438"
     inkscape:pageshadow="2"
     inkscape:pageopacity="0.0"
     guidetolerance="10.0"
     gridtolerance="10.0"
     objecttolerance="10.0"
     borderopacity="1.0"
     bordercolor="#666666"
     pagecolor="#ffffff"
     id="base"
     borderlayer="true"
     inkscape:zoom="5.9762244"
     inkscape:cx="22.638394"
     inkscape:cy="38.33273"
     inkscape:window-x="0"
     inkscape:window-y="16"
     inkscape:current-layer="layer2"
     width="700px"
     height="500px"
     showguides="true"
     inkscape:guide-bbox="true"
     showgrid="false"
     inkscape:window-maximized="1"
     inkscape:document-rotation="0" />
  <g
     inkscape:groupmode="layer"
     id="layer1"
     inkscape:label="bild"
     sodipodi:insensitive="true"
     transform="translate(0,-436)" />
  <g
     inkscape:groupmode="layer"
     id="layer2"
     inkscape:label="wings"
     transform="translate(0,-436)">
    <polygon
       fill="#e44d26"
       points="437.367,100.62 404.321,470.819 255.778,512 107.644,470.877 74.633,100.62 "
       id="polygon967"
       transform="matrix(0.11486464,0,0,0.11486464,2.5946533,438.59465)"
       style="stroke-width:8.7059" />
    <polygon
       fill="#f16529"
       points="256,480.523 376.03,447.246 404.27,130.894 256,130.894 "
       id="polygon969"
       transform="matrix(0.11486464,0,0,0.11486464,2.5946533,438.59465)"
       style="stroke-width:8.7059" />
    <polygon
       fill="#ebebeb"
       points="191.76,221.716 256,221.716 256,176.305 255.843,176.305 142.132,176.305 143.219,188.488 154.38,313.627 256,313.627 256,268.217 195.91,268.217 "
       id="polygon971"
       transform="matrix(0.11486464,0,0,0.11486464,2.5946533,438.59465)"
       style="stroke-width:8.7059" />
    <polygon
       fill="#ebebeb"
       points="201.994,336.333 177.419,336.333 156.409,336.333 162.771,407.634 255.791,433.457 256,433.399 256,386.153 255.801,386.206 205.227,372.55 "
       id="polygon973"
       transform="matrix(0.11486464,0,0,0.11486464,2.5946533,438.59465)"
       style="stroke-width:8.7059" />
    <path
       d="m 15.043911,438.59465 h 2.650731 v 2.61891 h 2.424793 v -2.61891 h 2.650846 v 7.93071 H 20.11955 v -2.65566 h -2.424793 v 2.65566 h -2.650731 v -7.93071 z"
       id="path975"
       style="stroke-width:1" />
    <path
       d="m 26.256078,441.22459 h -2.33359 v -2.62994 h 7.319174 v 2.62994 h -2.334623 v 5.30077 h -2.650846 v -5.30077 z"
       id="path977"
       style="stroke-width:1" />
    <path
       d="m 32.403289,438.59465 h 2.763988 l 1.700226,2.78662 1.698503,-2.78662 h 2.765022 v 7.93071 h -2.63982 v -3.93089 l -1.823705,2.81981 h -0.0456 l -1.824969,-2.81981 v 3.93089 h -2.593645 z"
       id="path979"
       style="stroke-width:1" />
    <path
       d="m 42.650248,438.59465 h 2.651536 v 5.30928 h 3.727701 v 2.62143 h -6.379237 z"
       id="path981"
       style="stroke-width:1" />
    <polygon
       fill="#ffffff"
       points="255.843,313.627 311.761,313.627 306.49,372.521 255.843,386.191 255.843,433.435 348.937,407.634 349.62,399.962 360.291,280.411 361.399,268.217 349.162,268.217 255.843,268.217 "
       id="polygon983"
       transform="matrix(0.11486464,0,0,0.11486464,2.5946533,438.59465)"
       style="stroke-width:8.7059" />
    <polygon
       fill="#ffffff"
       points="255.843,221.605 255.843,221.716 365.385,221.716 365.531,221.716 366.442,211.509 368.511,188.488 369.597,176.305 255.843,176.305 255.843,204.509 "
       id="polygon985"
       transform="matrix(0.11486464,0,0,0.11486464,2.5946533,438.59465)"
       style="stroke-width:8.7059" />
  </g>
  <g
     inkscape:groupmode="layer"
     id="layer3"
     inkscape:label="4"
     transform="translate(0,-436)" />
</svg>
