<?xml version="1.0" encoding="UTF-8" standalone="no"?>
<!-- Created with Inkscape (http://www.inkscape.org/) -->

<svg
   xmlns:dc="http://purl.org/dc/elements/1.1/"
   xmlns:cc="http://creativecommons.org/ns#"
   xmlns:rdf="http://www.w3.org/1999/02/22-rdf-syntax-ns#"
   xmlns:svg="http://www.w3.org/2000/svg"
   xmlns="http://www.w3.org/2000/svg"
   xmlns:xlink="http://www.w3.org/1999/xlink"
   xmlns:sodipodi="http://sodipodi.sourceforge.net/DTD/sodipodi-0.dtd"
   xmlns:inkscape="http://www.inkscape.org/namespaces/inkscape"
   width="64"
   height="64"
   viewBox="0 0 16.933 16.934"
   version="1.1"
   id="svg3791"
   inkscape:version="0.92.4 (5da689c313, 2019-01-14)"
   sodipodi:docname="star-folder-icon.svg"
   inkscape:export-filename="/home/tobias/flightgear/fgdata-standalone/Aircraft/E-jet-family/Models/EFB/icons/star-folder.png"
   inkscape:export-xdpi="96"
   inkscape:export-ydpi="96">
  <defs
     id="defs3785">
    <linearGradient
       inkscape:collect="always"
       id="linearGradient4380">
      <stop
         style="stop-color:#ffffff;stop-opacity:1"
         offset="0"
         id="stop4376" />
      <stop
         style="stop-color:#b3b3b3;stop-opacity:1"
         offset="1"
         id="stop4378" />
    </linearGradient>
    <linearGradient
       id="linearGradient4370"
       inkscape:collect="always">
      <stop
         id="stop4366"
         offset="0"
         style="stop-color:#ffe57d;stop-opacity:1" />
      <stop
         id="stop4368"
         offset="1"
         style="stop-color:#f2c100;stop-opacity:1" />
    </linearGradient>
    <linearGradient
       inkscape:collect="always"
       xlink:href="#linearGradient4370"
       id="linearGradient4362"
       x1="3.2461"
       y1="285.39"
       x2="7.3695"
       y2="293.1"
       gradientUnits="userSpaceOnUse"
       gradientTransform="matrix(1,0,0,1,2.116e-6,-1.548e-4)" />
    <linearGradient
       inkscape:collect="always"
       xlink:href="#linearGradient4380"
       id="linearGradient4374"
       gradientUnits="userSpaceOnUse"
       gradientTransform="matrix(1,0,0,1,2.116e-6,-1.548e-4)"
       x1="4.7468"
       y1="283.33"
       x2="5.2018"
       y2="284.71" />
    <filter
       inkscape:collect="always"
       style="color-interpolation-filters:sRGB"
       id="filter4430"
       x="-0.078168"
       width="1.1563"
       y="-0.10945"
       height="1.2189">
      <feGaussianBlur
         inkscape:collect="always"
         stdDeviation="1.6545"
         id="feGaussianBlur4432" />
    </filter>
    <radialGradient
       gradientUnits="userSpaceOnUse"
       gradientTransform="matrix(0.00195,0.41482,-0.55098,0.00265,155.51,-14.855)"
       r="24.574"
       fy="299.7"
       fx="25.453"
       cy="299.7"
       cx="25.453"
       id="radialGradient8241"
       xlink:href="#linearGradient8237"
       inkscape:collect="always" />
    <linearGradient
       id="linearGradient8237"
       inkscape:collect="always">
      <stop
         id="stop8233"
         offset="0"
         style="stop-color:#ffff00;stop-opacity:1" />
      <stop
         id="stop8235"
         offset="1"
         style="stop-color:#ffcc00;stop-opacity:1" />
    </linearGradient>
    <radialGradient
       r="24.574"
       fy="299.71"
       fx="25.452"
       cy="299.71"
       cx="25.452"
       gradientTransform="matrix(9.8602e-4,0.33648,-0.35214,0.00106,105.19,-6.7554)"
       gradientUnits="userSpaceOnUse"
       id="radialGradient8255"
       xlink:href="#linearGradient8247"
       inkscape:collect="always" />
    <linearGradient
       id="linearGradient8247"
       inkscape:collect="always">
      <stop
         id="stop8243"
         offset="0"
         style="stop-color:#aa8800;stop-opacity:1" />
      <stop
         id="stop8245"
         offset="1"
         style="stop-color:#000000;stop-opacity:1" />
    </linearGradient>
  </defs>
  <sodipodi:namedview
     id="base"
     pagecolor="#ffffff"
     bordercolor="#666666"
     borderopacity="1.0"
     inkscape:pageopacity="0.0"
     inkscape:pageshadow="2"
     inkscape:zoom="7.1405"
     inkscape:cx="18.913"
     inkscape:cy="27.042"
     inkscape:document-units="mm"
     inkscape:current-layer="g9724"
     showgrid="false"
     units="px"
     inkscape:window-width="1920"
     inkscape:window-height="1080"
     inkscape:window-x="1440"
     inkscape:window-y="0"
     inkscape:window-maximized="0" />
  <metadata
     id="metadata3788">
    <rdf:RDF>
      <cc:Work
         rdf:about="">
        <dc:format>image/svg+xml</dc:format>
        <dc:type
           rdf:resource="http://purl.org/dc/dcmitype/StillImage" />
        <dc:title></dc:title>
      </cc:Work>
    </rdf:RDF>
  </metadata>
  <g
     inkscape:label="Layer 1"
     inkscape:groupmode="layer"
     id="layer1"
     transform="translate(0,-280.07)">
    <path
       style="color:#000000;font-style:normal;font-variant:normal;font-weight:normal;font-stretch:normal;font-size:medium;line-height:normal;font-family:sans-serif;font-variant-ligatures:normal;font-variant-position:normal;font-variant-caps:normal;font-variant-numeric:normal;font-variant-alternates:normal;font-feature-settings:normal;text-indent:0;text-align:start;text-decoration:none;text-decoration-line:none;text-decoration-style:solid;text-decoration-color:#000000;letter-spacing:normal;word-spacing:normal;text-transform:none;writing-mode:lr-tb;direction:ltr;text-orientation:mixed;dominant-baseline:auto;baseline-shift:baseline;text-anchor:start;white-space:normal;shape-padding:0;clip-rule:nonzero;display:inline;overflow:visible;visibility:visible;opacity:0.497;isolation:auto;mix-blend-mode:normal;color-interpolation:sRGB;color-interpolation-filters:linearRGB;solid-color:#000000;solid-opacity:1;vector-effect:none;fill:#030303;fill-opacity:1;fill-rule:nonzero;stroke:none;stroke-width:1.87066;stroke-linecap:butt;stroke-linejoin:miter;stroke-miterlimit:4;stroke-dasharray:none;stroke-dashoffset:0;stroke-opacity:1;filter:url(#filter4430);color-rendering:auto;image-rendering:auto;shape-rendering:auto;text-rendering:auto;enable-background:accumulate"
       d="m 16.84,11.225 c -2.28,0 -4.149,1.851 -4.149,4.119 v 1.135 H 10.75 c -2.2801,0 -4.1484,1.851 -4.1484,4.119 V 43.35 c 0,2.305 1.8683,4.156 4.1484,4.156 h 42.504 c 2.279,0 4.146,-1.851 4.146,-4.156 V 20.598 c 0,-2.268 -1.867,-4.119 -4.146,-4.119 H 27.291 v -1.135 c 0,-2.268 -1.869,-4.119 -4.148,-4.119 z"
       transform="matrix(0.28247,0,0,0.28329,-0.04348,280.05)"
       id="path4399"
       inkscape:connector-curvature="0" />
    <rect
       ry="0.83375"
       y="282.95"
       x="3.2588"
       height="2.777"
       width="3.5596"
       id="rect4372"
       style="opacity:1;fill:url(#linearGradient4374);fill-opacity:1;stroke:#6f6f6f;stroke-width:0.5292;stroke-linecap:butt;stroke-miterlimit:4;stroke-dasharray:none;stroke-dashoffset:0;stroke-opacity:1"
       rx="0.83375" />
    <rect
       rx="0.83375"
       style="opacity:1;fill:url(#linearGradient4362);fill-opacity:1;stroke:#806600;stroke-width:0.5292;stroke-linecap:butt;stroke-miterlimit:4;stroke-dasharray:none;stroke-dashoffset:0;stroke-opacity:1"
       id="rect4336"
       width="13.786"
       height="8.2323"
       x="1.538"
       y="284.44"
       ry="0.83375" />
    <g
       transform="matrix(0.26459,0,0,0.26459,0.48941,205.21)"
       id="layer1-1"
       inkscape:label="Layer 1" />
  </g>
  <g
     id="g9724"
     transform="translate(2.8708,2.7539)">
    <path
       transform="matrix(0.40082,0,0,0.39651,3.5118,3.514)"
       sodipodi:type="star"
       style="opacity:1;fill:url(#radialGradient8241);fill-opacity:1;stroke:none;stroke-width:1.32741;stroke-linecap:butt;stroke-linejoin:miter;stroke-miterlimit:4;stroke-dasharray:none;stroke-dashoffset:0;stroke-opacity:0.99091"
       id="path8231"
       sodipodi:sides="5"
       sodipodi:cx="5.6786"
       sodipodi:cy="6.2287"
       sodipodi:r1="6.5532"
       sodipodi:r2="3.0799"
       sodipodi:arg1="0.93611"
       sodipodi:arg2="1.5644"
       inkscape:flatsided="false"
       inkscape:rounded="0.1"
       inkscape:randomized="0"
       d="M 9.5642,11.506 C 9.2061,11.769 6.143,9.3057 5.6983,9.3085 5.2536,9.3114 2.222,11.814 1.8606,11.555 1.4992,11.296 2.8957,7.6212 2.7556,7.1992 2.6155,6.7771 -0.70134,4.6672 -0.56663,4.2434 -0.43193,3.8196 3.4943,4.0123 3.8524,3.7486 4.2105,3.485 5.1922,-0.32152 5.6369,-0.32437 6.0815,-0.32721 7.1115,3.4664 7.4729,3.7255 7.8344,3.9846 11.758,3.742 11.898,4.164 12.038,4.586 8.7485,6.7379 8.6138,7.1617 8.4791,7.5855 9.9222,11.242 9.5642,11.506 Z"
       inkscape:transform-center-x="0.019498"
       inkscape:transform-center-y="-0.91935" />
    <path
       style="color:#000000;font-style:normal;font-variant:normal;font-weight:normal;font-stretch:normal;font-size:medium;line-height:normal;font-family:sans-serif;font-variant-ligatures:normal;font-variant-position:normal;font-variant-caps:normal;font-variant-numeric:normal;font-variant-alternates:normal;font-feature-settings:normal;text-indent:0;text-align:start;text-decoration:none;text-decoration-line:none;text-decoration-style:solid;text-decoration-color:#000000;letter-spacing:normal;word-spacing:normal;text-transform:none;writing-mode:lr-tb;direction:ltr;text-orientation:mixed;dominant-baseline:auto;baseline-shift:baseline;text-anchor:start;white-space:normal;shape-padding:0;clip-rule:nonzero;display:inline;overflow:visible;visibility:visible;opacity:1;isolation:auto;mix-blend-mode:normal;color-interpolation:sRGB;color-interpolation-filters:linearRGB;solid-color:#000000;solid-opacity:1;vector-effect:none;fill:url(#radialGradient8255);fill-opacity:0.99091;fill-rule:nonzero;stroke:none;stroke-width:0.52918;stroke-linecap:butt;stroke-linejoin:miter;stroke-miterlimit:4;stroke-dasharray:none;stroke-dashoffset:0;stroke-opacity:1;color-rendering:auto;image-rendering:auto;shape-rendering:auto;text-rendering:auto;enable-background:accumulate"
       d="m 5.7706,3.2802 c -0.049,0 -0.082,0.023 -0.1058,0.044 -0.023,0.02 -0.041,0.043 -0.058,0.068 C 5.5718,3.4432 5.5408,3.5065 5.5078,3.581 5.4407,3.7303 5.37,3.9234 5.3006,4.1196 5.231,4.3157 5.1627,4.514 5.1039,4.6672 5.0749,4.7442 5.0469,4.8099 5.0249,4.856 5.0029,4.902 4.9709,4.932 4.9929,4.916 5.0149,4.9 4.9769,4.927 4.9259,4.929 4.8739,4.939 4.8029,4.943 4.7201,4.948 4.5547,4.958 4.3431,4.963 4.1333,4.971 3.9235,4.981 3.7157,4.988 3.5521,5.007 c -0.082,0.01 -0.1523,0.02 -0.2115,0.038 -0.03,0.01 -0.056,0.019 -0.083,0.035 -0.027,0.016 -0.058,0.04 -0.073,0.086 -0.015,0.046 0,0.085 0.01,0.1133 0.012,0.029 0.029,0.051 0.048,0.076 0.038,0.048 0.089,0.098 0.1503,0.1521 0.1227,0.1091 0.2868,0.235 0.4536,0.3609 0.1669,0.1259 0.3366,0.2518 0.4659,0.3536 0.065,0.051 0.1193,0.098 0.157,0.1332 0.038,0.036 0.057,0.074 0.048,0.048 -0.01,-0.025 0,0.017 -0.01,0.068 -0.01,0.05 -0.025,0.1196 -0.046,0.1983 C 4.4194,6.829 4.3599,7.0292 4.3023,7.2287 4.2443,7.4289 4.1894,7.627 4.1569,7.7864 c -0.016,0.08 -0.027,0.1503 -0.029,0.211 0,0.032 0,0.059 0.01,0.089 0.01,0.032 0.021,0.067 0.061,0.095 0.04,0.028 0.08,0.028 0.1113,0.028 0.031,0 0.059,-0.012 0.088,-0.02 0.058,-0.02 0.1213,-0.054 0.1926,-0.095 C 4.7293,8.012 4.9012,7.8966 5.0739,7.7793 5.2465,7.6607 5.4195,7.5398 5.5581,7.4499 5.6275,7.4059 5.6887,7.3678 5.7345,7.344 5.7805,7.32 5.8235,7.312 5.7965,7.312 c -0.027,0 0.016,0.012 0.062,0.028 0.046,0.024 0.1075,0.061 0.1774,0.1047 0.1398,0.088 0.3143,0.2068 0.4884,0.3222 0.1742,0.1161 0.3478,0.2288 0.4913,0.3092 0.072,0.04 0.1355,0.071 0.194,0.092 0.028,0.012 0.056,0.016 0.088,0.02 0.032,0 0.072,0 0.111,-0.028 0.04,-0.028 0.053,-0.066 0.059,-0.097 0.01,-0.032 0.01,-0.059 0.01,-0.089 0,-0.061 -0.016,-0.1308 -0.032,-0.2109 C 7.4071,7.6044 7.351,7.4075 7.2909,7.208 7.2307,7.0098 7.1682,6.8096 7.1245,6.651 7.1045,6.572 7.0845,6.5031 7.0765,6.4527 c -0.01,-0.05 0,-0.092 -0.012,-0.067 -0.01,0.025 0.012,-0.014 0.048,-0.049 C 7.1482,6.3006 7.2035,6.2534 7.2676,6.202 7.3955,6.0971 7.5633,5.9701 7.7284,5.8421 7.8936,5.7141 8.0559,5.5851 8.1773,5.4749 8.2379,5.4193 8.288,5.37 8.3256,5.3207 c 0.02,-0.024 0.036,-0.047 0.047,-0.076 0.012,-0.028 0.024,-0.067 0.01,-0.1134 C 8.3645,5.0857 8.3333,5.0616 8.306,5.0459 8.278,5.0301 8.2523,5.0209 8.2222,5.0122 8.1629,4.9964 8.0924,4.986 8.0102,4.9777 7.8467,4.9611 7.639,4.9535 7.4291,4.9496 c -0.21,0 -0.4216,-0.011 -0.5872,-0.016 -0.083,0 -0.1544,-0.01 -0.2059,-0.017 C 6.585,4.9056 6.547,4.8896 6.569,4.9056 6.591,4.9216 6.559,4.8926 6.537,4.8456 6.513,4.8004 6.4849,4.7354 6.4545,4.6588 6.3938,4.5056 6.3232,4.3084 6.2511,4.1132 6.179,3.9181 6.1058,3.7261 6.0371,3.5782 6.0027,3.5037 5.9702,3.4407 5.9352,3.3904 5.9176,3.3652 5.8999,3.3432 5.8764,3.3232 5.8528,3.3022 5.8193,3.2802 5.7704,3.2802 Z m 0,0.2507 c 0.021,0.033 0.045,0.076 0.072,0.1343 0.063,0.1364 0.136,0.3264 0.2076,0.5204 0.071,0.1931 0.1422,0.3914 0.2052,0.5498 0.032,0.079 0.061,0.1479 0.089,0.2035 0.028,0.057 0.041,0.096 0.099,0.1373 0.058,0.042 0.1009,0.041 0.1633,0.049 0.062,0.01 0.1378,0.013 0.2236,0.018 0.172,0.011 0.384,0.011 0.5924,0.016 0.2087,0 0.4136,0.011 0.5647,0.027 0.065,0.011 0.1138,0.016 0.1519,0.024 -0.02,0.031 -0.054,0.067 -0.1022,0.1108 C 7.9252,5.4228 7.7649,5.5497 7.601,5.6766 7.4367,5.8036 7.2684,5.9316 7.1357,6.0396 7.0696,6.0942 7.0123,6.1435 6.9674,6.1865 c -0.045,0.043 -0.08,0.068 -0.1018,0.1353 -0.02,0.068 -0.01,0.1081 0,0.169 0.012,0.061 0.028,0.1343 0.053,0.2161 0.045,0.1637 0.1078,0.3651 0.1675,0.5626 0.06,0.1971 0.1167,0.392 0.1483,0.5391 0.016,0.064 0.02,0.1122 0.024,0.1511 C 7.2219,7.9438 7.1766,7.924 7.1193,7.8923 6.9874,7.8185 6.8159,7.7075 6.643,7.5921 6.47,7.4777 6.295,7.3583 6.15,7.2667 6.0775,7.2207 6.0129,7.1819 5.9572,7.1537 5.9014,7.124 5.867,7.099 5.7954,7.1002 5.7238,7.1002 5.6896,7.128 5.6342,7.1557 5.5789,7.1835 5.5146,7.2247 5.4427,7.2711 5.2989,7.3643 5.1255,7.485 4.954,7.6024 4.7825,7.7198 4.6125,7.8332 4.4809,7.9089 c -0.057,0.032 -0.1013,0.053 -0.1377,0.068 0,-0.04 0.01,-0.087 0.021,-0.1503 0.03,-0.1479 0.084,-0.3441 0.1413,-0.5422 0.057,-0.1983 0.1176,-0.3985 0.1606,-0.5633 0.022,-0.083 0.039,-0.1553 0.049,-0.2172 0.011,-0.061 0.024,-0.1017 0,-0.1689 C 4.6943,6.2681 4.6593,6.2439 4.6137,6.2009 4.5682,6.1579 4.5102,6.1097 4.4432,6.0561 4.3092,5.9502 4.139,5.8243 3.9732,5.6994 3.8074,5.5746 3.6458,5.4498 3.5326,5.349 3.4838,5.306 3.45,5.2703 3.4242,5.241 3.4622,5.231 3.5112,5.221 3.5761,5.214 3.7271,5.197 3.932,5.188 4.1403,5.18 4.3487,5.169 4.5607,5.167 4.7323,5.157 4.8183,5.146 4.8936,5.145 4.9559,5.137 5.0179,5.126 5.061,5.126 5.1187,5.085 5.1767,5.043 5.1887,5.003 5.2157,4.9466 5.2427,4.8906 5.2717,4.8207 5.3017,4.742 5.3627,4.5825 5.4309,4.3842 5.5001,4.1891 5.5691,3.995 5.6391,3.804 5.7007,3.6666 c 0.027,-0.06 0.05,-0.1018 0.071,-0.1354 z"
       id="path8251"
       inkscape:connector-curvature="0" />
  </g>
</svg>
