<?xml version="1.0" encoding="UTF-8" standalone="no"?>
<!-- Created with Inkscape (http://www.inkscape.org/) -->

<svg
   xmlns:dc="http://purl.org/dc/elements/1.1/"
   xmlns:cc="http://creativecommons.org/ns#"
   xmlns:rdf="http://www.w3.org/1999/02/22-rdf-syntax-ns#"
   xmlns:svg="http://www.w3.org/2000/svg"
   xmlns="http://www.w3.org/2000/svg"
   xmlns:sodipodi="http://sodipodi.sourceforge.net/DTD/sodipodi-0.dtd"
   xmlns:inkscape="http://www.inkscape.org/namespaces/inkscape"
   width="64"
   height="64"
   viewBox="0 0 64 64"
   version="1.1"
   id="svg7682"
   inkscape:version="0.92.4 (5da689c313, 2019-01-14)"
   sodipodi:docname="staroff-icon.svg"
   inkscape:export-filename="/home/tobias/flightgear/fgdata-standalone/Aircraft/E-jet-family/Models/EFB/icons/staroff.png"
   inkscape:export-xdpi="96"
   inkscape:export-ydpi="96">
  <defs
     id="defs7676">
    <filter
       inkscape:collect="always"
       style="color-interpolation-filters:sRGB"
       id="filter8294"
       x="-0.11735"
       width="1.2347"
       y="-0.12277"
       height="1.2455">
      <feGaussianBlur
         inkscape:collect="always"
         stdDeviation="2.4028"
         id="feGaussianBlur8296" />
    </filter>
  </defs>
  <sodipodi:namedview
     id="base"
     pagecolor="#ffffff"
     bordercolor="#666666"
     borderopacity="1.0"
     inkscape:pageopacity="0.0"
     inkscape:pageshadow="2"
     inkscape:zoom="5.0391"
     inkscape:cx="30.182"
     inkscape:cy="26.558"
     inkscape:document-units="mm"
     inkscape:current-layer="layer1"
     showgrid="false"
     units="px"
     inkscape:pagecheckerboard="true"
     inkscape:window-width="1920"
     inkscape:window-height="1080"
     inkscape:window-x="1440"
     inkscape:window-y="0"
     inkscape:window-maximized="0" />
  <metadata
     id="metadata7679">
    <rdf:RDF>
      <cc:Work
         rdf:about="">
        <dc:format>image/svg+xml</dc:format>
        <dc:type
           rdf:resource="http://purl.org/dc/dcmitype/StillImage" />
        <dc:title></dc:title>
      </cc:Work>
    </rdf:RDF>
  </metadata>
  <g
     inkscape:label="Layer 1"
     inkscape:groupmode="layer"
     id="layer1"
     transform="translate(0,-280.07)">
    <path
       style="color:#000000;font-style:normal;font-variant:normal;font-weight:normal;font-stretch:normal;font-size:medium;line-height:normal;font-family:sans-serif;font-variant-ligatures:normal;font-variant-position:normal;font-variant-caps:normal;font-variant-numeric:normal;font-variant-alternates:normal;font-feature-settings:normal;text-indent:0;text-align:start;text-decoration:none;text-decoration-line:none;text-decoration-style:solid;text-decoration-color:#000000;letter-spacing:normal;word-spacing:normal;text-transform:none;writing-mode:lr-tb;direction:ltr;text-orientation:mixed;dominant-baseline:auto;baseline-shift:baseline;text-anchor:start;white-space:normal;shape-padding:0;clip-rule:nonzero;display:inline;overflow:visible;visibility:visible;opacity:1;isolation:auto;mix-blend-mode:normal;color-interpolation:sRGB;color-interpolation-filters:linearRGB;solid-color:#000000;solid-opacity:1;vector-effect:none;fill:#000000;fill-opacity:0.99091;fill-rule:nonzero;stroke:none;stroke-width:2;stroke-linecap:butt;stroke-linejoin:miter;stroke-miterlimit:4;stroke-dasharray:none;stroke-dashoffset:0;stroke-opacity:1;filter:url(#filter8294);color-rendering:auto;image-rendering:auto;shape-rendering:auto;text-rendering:auto;enable-background:accumulate"
       d="m 33.372,290.09 c -0.461,0 -0.774,0.22 -0.995,0.42 -0.22,0.19 -0.385,0.41 -0.546,0.65 -0.324,0.49 -0.623,1.09 -0.938,1.8 -0.63,1.42 -1.296,3.26 -1.951,5.13 -0.656,1.87 -1.3,3.76 -1.854,5.22 -0.277,0.73 -0.534,1.36 -0.746,1.8 -0.134,0.28 -0.289,0.48 -0.342,0.56 -0.118,0.1 -0.334,0.12 -0.595,0.13 -0.486,0.1 -1.159,0.13 -1.94,0.18 -1.56,0.1 -3.555,0.14 -5.533,0.22 -1.978,0.1 -3.937,0.16 -5.48,0.34 -0.772,0.1 -1.435,0.19 -1.992,0.36 -0.279,0.1 -0.532,0.18 -0.785,0.33 -0.2523,0.15 -0.5516,0.38 -0.6913,0.82 -0.1397,0.44 -0.03,0.81 0.088,1.08 0.1179,0.27 0.271,0.49 0.4513,0.72 0.361,0.46 0.839,0.93 1.416,1.45 1.156,1.04 2.703,2.24 4.276,3.44 1.574,1.2 3.174,2.4 4.393,3.37 0.609,0.49 1.125,0.93 1.48,1.27 0.206,0.2 0.343,0.39 0.414,0.48 0,0.12 0,0.35 -0.05,0.63 -0.08,0.48 -0.238,1.14 -0.434,1.89 -0.392,1.52 -0.957,3.43 -1.5,5.33 -0.543,1.91 -1.063,3.8 -1.369,5.32 -0.153,0.76 -0.256,1.43 -0.272,2.01 0,0.29 0,0.56 0.07,0.85 0.07,0.29 0.197,0.64 0.572,0.91 0.375,0.27 0.755,0.28 1.049,0.25 0.293,0 0.553,-0.1 0.826,-0.21 0.546,-0.2 1.144,-0.51 1.816,-0.9 1.345,-0.78 2.966,-1.88 4.594,-3 1.628,-1.13 3.26,-2.28 4.567,-3.14 0.654,-0.42 1.23,-0.78 1.662,-1.01 0.232,-0.13 0.446,-0.2 0.564,-0.24 0.1,0.1 0.335,0.12 0.6,0.23 0.434,0.23 1.015,0.58 1.674,1 1.319,0.84 2.963,1.97 4.605,3.07 1.642,1.11 3.278,2.18 4.633,2.95 0.677,0.38 1.277,0.68 1.826,0.88 0.274,0.1 0.536,0.17 0.83,0.19 0.294,0 0.674,0 1.045,-0.26 0.371,-0.27 0.498,-0.63 0.561,-0.92 0.06,-0.29 0.07,-0.56 0.06,-0.85 -0.02,-0.58 -0.134,-1.25 -0.297,-2.01 -0.326,-1.52 -0.868,-3.4 -1.435,-5.3 -0.568,-1.89 -1.16,-3.8 -1.571,-5.31 -0.205,-0.75 -0.364,-1.41 -0.453,-1.89 -0.05,-0.28 -0.05,-0.52 -0.06,-0.63 0.07,-0.1 0.208,-0.29 0.406,-0.48 0.351,-0.34 0.861,-0.79 1.465,-1.28 1.206,-1 2.787,-2.21 4.345,-3.43 1.558,-1.22 3.091,-2.45 4.235,-3.5 0.571,-0.53 1.044,-1 1.398,-1.47 0.177,-0.23 0.33,-0.45 0.444,-0.72 0.115,-0.27 0.22,-0.64 0.08,-1.08 -0.146,-0.44 -0.449,-0.67 -0.703,-0.82 -0.255,-0.15 -0.508,-0.24 -0.79,-0.32 -0.56,-0.15 -1.226,-0.25 -2,-0.33 -1.545,-0.16 -3.503,-0.23 -5.482,-0.27 -1.979,0 -3.975,-0.1 -5.537,-0.15 -0.781,0 -1.455,-0.1 -1.941,-0.16 -0.291,-0.1 -0.519,-0.13 -0.625,-0.15 -0.07,-0.1 -0.205,-0.29 -0.321,-0.52 -0.218,-0.44 -0.483,-1.06 -0.769,-1.79 -0.573,-1.46 -1.239,-3.34 -1.918,-5.2 -0.68,-1.86 -1.37,-3.69 -2.018,-5.1 -0.324,-0.71 -0.631,-1.31 -0.961,-1.79 -0.165,-0.24 -0.331,-0.45 -0.554,-0.64 -0.224,-0.2 -0.539,-0.41 -0.998,-0.41 z"
       id="path8261"
       inkscape:connector-curvature="0" />
    <path
       sodipodi:type="star"
       style="opacity:1;fill:#cccccc;fill-opacity:1;stroke:none;stroke-width:2;stroke-linecap:butt;stroke-linejoin:miter;stroke-miterlimit:4;stroke-dasharray:none;stroke-dashoffset:0;stroke-opacity:0.99091"
       id="path8231"
       sodipodi:sides="5"
       sodipodi:cx="32.052"
       sodipodi:cy="314.36"
       sodipodi:r1="24.767"
       sodipodi:r2="11.64"
       sodipodi:arg1="0.93611"
       sodipodi:arg2="1.5644"
       inkscape:flatsided="false"
       inkscape:rounded="0.1"
       inkscape:randomized="0"
       d="m 46.737,334.3 c -1.353,1 -12.93,-8.31 -14.611,-8.3 -1.68,0 -13.138,9.47 -14.504,8.49 -1.366,-0.98 3.912,-14.87 3.383,-16.46 -0.53,-1.6 -13.0652,-9.57 -12.5561,-11.17 0.5091,-1.6 15.3481,-0.88 16.7011,-1.87 1.353,-1 5.064,-15.39 6.744,-15.4 1.681,-0 5.574,14.33 6.939,15.31 1.366,0.98 16.195,0.1 16.725,1.66 0.529,1.59 -11.904,9.72 -12.413,11.33 -0.509,1.6 4.945,15.42 3.592,16.41 z"
       inkscape:transform-center-x="0.048743"
       inkscape:transform-center-y="-2.3187" />
    <path
       style="color:#000000;font-style:normal;font-variant:normal;font-weight:normal;font-stretch:normal;font-size:medium;line-height:normal;font-family:sans-serif;font-variant-ligatures:normal;font-variant-position:normal;font-variant-caps:normal;font-variant-numeric:normal;font-variant-alternates:normal;font-feature-settings:normal;text-indent:0;text-align:start;text-decoration:none;text-decoration-line:none;text-decoration-style:solid;text-decoration-color:#000000;letter-spacing:normal;word-spacing:normal;text-transform:none;writing-mode:lr-tb;direction:ltr;text-orientation:mixed;dominant-baseline:auto;baseline-shift:baseline;text-anchor:start;white-space:normal;shape-padding:0;clip-rule:nonzero;display:inline;overflow:visible;visibility:visible;opacity:1;isolation:auto;mix-blend-mode:normal;color-interpolation:sRGB;color-interpolation-filters:linearRGB;solid-color:#000000;solid-opacity:1;vector-effect:none;fill:#999999;fill-opacity:0.99091;fill-rule:nonzero;stroke:none;stroke-width:2;stroke-linecap:butt;stroke-linejoin:miter;stroke-miterlimit:4;stroke-dasharray:none;stroke-dashoffset:0;stroke-opacity:1;color-rendering:auto;image-rendering:auto;shape-rendering:auto;text-rendering:auto;enable-background:accumulate"
       d="m 31.889,288.59 c -0.462,0 -0.776,0.22 -0.997,0.42 -0.22,0.19 -0.385,0.41 -0.546,0.65 -0.324,0.49 -0.623,1.09 -0.938,1.8 -0.63,1.42 -1.296,3.26 -1.951,5.13 -0.656,1.87 -1.3,3.76 -1.854,5.22 -0.277,0.73 -0.534,1.36 -0.746,1.8 -0.212,0.44 -0.506,0.72 -0.301,0.57 0.206,-0.15 -0.151,0.1 -0.636,0.12 -0.486,0.1 -1.159,0.13 -1.94,0.18 -1.56,0.1 -3.555,0.14 -5.533,0.22 -1.978,0.1 -3.937,0.16 -5.48,0.34 -0.772,0.1 -1.4362,0.19 -1.9942,0.36 -0.28,0.1 -0.533,0.18 -0.7857,0.33 -0.2524,0.15 -0.5517,0.38 -0.6914,0.82 -0.1397,0.44 -0.03,0.81 0.088,1.08 0.1179,0.27 0.271,0.49 0.4512,0.72 0.3609,0.46 0.8399,0.93 1.4179,1.45 1.1572,1.04 2.7042,2.24 4.2772,3.44 1.574,1.2 3.174,2.4 4.393,3.37 0.609,0.49 1.125,0.93 1.48,1.27 0.356,0.34 0.534,0.71 0.453,0.46 -0.08,-0.24 0,0.16 -0.09,0.65 -0.08,0.48 -0.236,1.14 -0.432,1.89 -0.392,1.52 -0.957,3.43 -1.5,5.33 -0.543,1.91 -1.065,3.8 -1.371,5.32 -0.153,0.76 -0.254,1.43 -0.27,2.01 0,0.29 0,0.56 0.07,0.85 0.07,0.29 0.197,0.64 0.572,0.91 0.375,0.27 0.755,0.28 1.049,0.25 0.293,0 0.553,-0.1 0.826,-0.21 0.546,-0.2 1.144,-0.51 1.816,-0.9 1.345,-0.78 2.966,-1.88 4.594,-3 1.628,-1.13 3.259,-2.28 4.566,-3.14 0.654,-0.42 1.231,-0.78 1.663,-1.01 0.431,-0.24 0.835,-0.29 0.58,-0.29 -0.256,0 0.149,0.1 0.584,0.28 0.434,0.23 1.014,0.58 1.673,1 1.319,0.84 2.964,1.97 4.606,3.07 1.642,1.11 3.278,2.18 4.633,2.95 0.677,0.38 1.277,0.68 1.826,0.88 0.274,0.1 0.536,0.17 0.83,0.19 0.294,0 0.674,0 1.045,-0.26 0.371,-0.27 0.497,-0.63 0.56,-0.92 0.06,-0.29 0.07,-0.56 0.06,-0.85 -0.02,-0.58 -0.134,-1.25 -0.297,-2.01 -0.326,-1.52 -0.87,-3.4 -1.437,-5.3 -0.568,-1.89 -1.158,-3.8 -1.569,-5.31 -0.205,-0.75 -0.364,-1.41 -0.453,-1.89 -0.09,-0.48 -0.02,-0.88 -0.1,-0.64 -0.08,0.24 0.1,-0.13 0.448,-0.47 0.351,-0.34 0.861,-0.79 1.465,-1.28 1.206,-1 2.789,-2.21 4.347,-3.43 1.558,-1.22 3.089,-2.45 4.233,-3.5 0.571,-0.53 1.046,-1 1.4,-1.47 0.177,-0.23 0.329,-0.45 0.443,-0.72 0.115,-0.27 0.22,-0.64 0.08,-1.08 -0.146,-0.44 -0.449,-0.67 -0.703,-0.82 -0.255,-0.15 -0.509,-0.24 -0.79,-0.32 -0.56,-0.15 -1.227,-0.25 -2,-0.33 -1.545,-0.16 -3.503,-0.23 -5.482,-0.27 -1.979,0 -3.975,-0.1 -5.537,-0.15 -0.781,0 -1.455,-0.1 -1.941,-0.16 -0.487,-0.1 -0.847,-0.25 -0.639,-0.1 0.207,0.15 -0.09,-0.13 -0.307,-0.57 -0.218,-0.44 -0.483,-1.06 -0.769,-1.79 -0.573,-1.46 -1.239,-3.34 -1.918,-5.2 -0.68,-1.86 -1.37,-3.69 -2.018,-5.1 -0.324,-0.71 -0.631,-1.31 -0.961,-1.79 -0.165,-0.24 -0.331,-0.45 -0.554,-0.64 -0.224,-0.2 -0.539,-0.41 -1,-0.41 z m 0.02,2.39 c 0.198,0.31 0.424,0.72 0.682,1.28 0.597,1.3 1.282,3.11 1.957,4.96 0.674,1.84 1.341,3.73 1.935,5.24 0.297,0.75 0.575,1.41 0.838,1.94 0.263,0.54 0.387,0.92 0.936,1.31 0.549,0.4 0.951,0.39 1.539,0.47 0.588,0.1 1.299,0.13 2.109,0.17 1.62,0.1 3.621,0.1 5.586,0.15 1.966,0 3.898,0.11 5.324,0.26 0.616,0.1 1.072,0.15 1.434,0.23 -0.238,0.29 -0.553,0.63 -1.008,1.05 -1.055,0.97 -2.564,2.18 -4.111,3.39 -1.548,1.21 -3.136,2.43 -4.387,3.46 -0.626,0.52 -1.166,0.99 -1.59,1.4 -0.424,0.41 -0.752,0.65 -0.957,1.29 -0.204,0.65 -0.07,1.03 0.03,1.61 0.107,0.58 0.28,1.28 0.493,2.06 0.426,1.56 1.018,3.48 1.582,5.36 0.563,1.88 1.098,3.74 1.398,5.14 0.13,0.61 0.189,1.07 0.219,1.44 -0.345,-0.14 -0.767,-0.33 -1.307,-0.64 -1.249,-0.7 -2.865,-1.76 -4.496,-2.86 -1.631,-1.09 -3.281,-2.23 -4.648,-3.1 -0.684,-0.44 -1.293,-0.81 -1.819,-1.08 -0.525,-0.28 -0.85,-0.52 -1.525,-0.51 -0.675,0 -0.998,0.25 -1.52,0.53 -0.521,0.28 -1.128,0.66 -1.806,1.1 -1.356,0.89 -2.991,2.04 -4.608,3.16 -1.617,1.12 -3.22,2.2 -4.461,2.92 -0.535,0.31 -0.955,0.51 -1.298,0.65 0.02,-0.37 0.08,-0.83 0.201,-1.43 0.282,-1.41 0.792,-3.28 1.332,-5.17 0.539,-1.89 1.109,-3.8 1.515,-5.37 0.204,-0.79 0.366,-1.48 0.465,-2.07 0.1,-0.58 0.227,-0.97 0.01,-1.61 -0.213,-0.64 -0.543,-0.87 -0.973,-1.28 -0.429,-0.41 -0.975,-0.87 -1.607,-1.38 -1.264,-1.01 -2.869,-2.21 -4.432,-3.4 -1.563,-1.19 -3.087,-2.38 -4.154,-3.34 -0.461,-0.41 -0.779,-0.75 -1.0222,-1.03 0.3612,-0.1 0.8172,-0.19 1.4322,-0.26 1.424,-0.16 3.356,-0.25 5.32,-0.33 1.965,-0.1 3.964,-0.12 5.582,-0.22 0.81,-0.1 1.521,-0.11 2.108,-0.19 0.587,-0.1 0.991,-0.1 1.535,-0.49 0.544,-0.4 0.662,-0.78 0.918,-1.32 0.256,-0.53 0.525,-1.2 0.812,-1.95 0.575,-1.52 1.218,-3.41 1.87,-5.27 0.651,-1.85 1.311,-3.67 1.892,-4.98 0.251,-0.57 0.474,-0.97 0.668,-1.29 z"
       id="path8251"
       inkscape:connector-curvature="0" />
  </g>
</svg>
