<?xml version="1.0" encoding="UTF-8" standalone="no"?>
<!-- Created with Inkscape (http://www.inkscape.org/) -->
<svg
   xmlns:dc="http://purl.org/dc/elements/1.1/"
   xmlns:cc="http://web.resource.org/cc/"
   xmlns:rdf="http://www.w3.org/1999/02/22-rdf-syntax-ns#"
   xmlns:svg="http://www.w3.org/2000/svg"
   xmlns="http://www.w3.org/2000/svg"
   xmlns:sodipodi="http://sodipodi.sourceforge.net/DTD/sodipodi-0.dtd"
   xmlns:inkscape="http://www.inkscape.org/namespaces/inkscape"
   id="svg2226"
   sodipodi:version="0.32"
   inkscape:version="0.45.1"
   width="700"
   height="500"
   version="1.0"
   sodipodi:docbase="C:\Dokumente und Einstellungen\pc_1\Eigene Dateien\Internetdownloads"
   sodipodi:docname="Suitcasewith wings 21.svg"
   inkscape:output_extension="org.inkscape.output.svg.inkscape">
  <metadata
     id="metadata2231">
    <rdf:RDF>
      <cc:Work
         rdf:about="">
        <dc:format>image/svg+xml</dc:format>
        <dc:type
           rdf:resource="http://purl.org/dc/dcmitype/StillImage" />
      </cc:Work>
    </rdf:RDF>
  </metadata>
  <defs
     id="defs2229" />
  <sodipodi:namedview
     inkscape:window-height="1140"
     inkscape:window-width="1600"
     inkscape:pageshadow="2"
     inkscape:pageopacity="0.0"
     guidetolerance="10.0"
     gridtolerance="10.0"
     objecttolerance="10.0"
     borderopacity="1.0"
     bordercolor="#666666"
     pagecolor="#ffffff"
     id="base"
     borderlayer="true"
     inkscape:zoom="1.2443707"
     inkscape:cx="340.51772"
     inkscape:cy="199.92924"
     inkscape:window-x="-4"
     inkscape:window-y="-4"
     inkscape:current-layer="layer2"
     width="700px"
     height="500px"
     showguides="true"
     inkscape:guide-bbox="true" />
  <g
     inkscape:groupmode="layer"
     id="layer1"
     inkscape:label="bild"
     sodipodi:insensitive="true" />
  <g
     inkscape:groupmode="layer"
     id="layer2"
     inkscape:label="wings">
    <path
       style="opacity:0.92000002;color:#000000;fill:#006599;fill-opacity:0.85098039;fill-rule:nonzero;stroke:none;stroke-width:2;stroke-linecap:round;stroke-linejoin:round;marker:none;marker-start:none;marker-mid:none;marker-end:none;stroke-miterlimit:4;stroke-dashoffset:0;stroke-opacity:0.5335968;visibility:visible;display:inline;overflow:visible;enable-background:accumulate"
       d="M 491.34203,264.81885 L 467.41202,264.81885 L 467.71715,494.7135 L 491.34203,494.7135 C 510.09863,494.7135 525.19873,479.793 525.19873,461.25942 L 525.19873,298.2729 C 525.19873,279.73934 510.09863,264.81885 491.34203,264.81885 z "
       id="rect2266"
       sodipodi:nodetypes="ccccccc" />
    <rect
       style="opacity:0.92000002;color:#000000;fill:#339967;fill-opacity:1;fill-rule:nonzero;stroke:none;stroke-width:2;stroke-linecap:round;stroke-linejoin:round;marker:none;marker-start:none;marker-mid:none;marker-end:none;stroke-miterlimit:4;stroke-dasharray:none;stroke-dashoffset:0;stroke-opacity:0.5335968;visibility:visible;display:inline;overflow:visible;enable-background:accumulate"
       id="rect4209"
       width="208.40192"
       height="229.89459"
       x="247.56833"
       y="264.81888"
       rx="140.15222"
       ry="0" />
    <path
       style="opacity:0.92000002;color:#000000;fill:#006599;fill-opacity:0.85098039;fill-rule:nonzero;stroke:none;stroke-width:2;stroke-linecap:round;stroke-linejoin:round;marker:none;marker-start:none;marker-mid:none;marker-end:none;stroke-miterlimit:4;stroke-dashoffset:0;stroke-opacity:0.5335968;visibility:visible;display:inline;overflow:visible;enable-background:accumulate"
       d="M 212.19654,264.81885 L 236.12658,264.81885 L 235.82144,494.7135 L 212.19654,494.7135 C 193.43993,494.7135 178.33988,479.793 178.33988,461.25942 L 178.33988,298.2729 C 178.33988,279.73934 193.43993,264.81885 212.19654,264.81885 z "
       id="path4211"
       sodipodi:nodetypes="ccccccc" />
    <path
       style="opacity:0.92000002;color:#000000;fill:#990100;fill-opacity:0.85098039;fill-rule:nonzero;stroke:none;stroke-width:2;stroke-linecap:round;stroke-linejoin:round;marker:none;marker-start:none;marker-mid:none;marker-end:none;stroke-miterlimit:4;stroke-dashoffset:0;stroke-opacity:0.5335968;visibility:visible;display:inline;overflow:visible;enable-background:accumulate"
       mask="none"
       d="M 325.41878,217.98146 C 311.43381,217.98146 300.17467,229.24063 300.17467,243.22558 L 300.17467,262.66901 C 308.65066,262.69592 309.90929,262.70846 318.02825,262.66014 L 318.02825,246.5698 C 318.02825,240.59335 322.25813,235.78219 327.51745,235.78219 L 377.5754,235.78219 C 382.83474,235.78219 387.06459,240.59332 387.06459,246.5698 L 387.59588,262.7788 C 395.09084,262.78565 396.54397,262.89164 404.38344,262.78208 L 403.9519,243.22558 C 403.9519,229.24063 392.69274,217.98146 378.70778,217.98146 L 325.41878,217.98146 z "
       id="rect4215"
       sodipodi:nodetypes="ccccccccccccc" />
    <g
       id="g15635"
       inkscape:label="4"
       transform="translate(-2623.1357,2137.5084)" />
    <path
       style="fill:#02b5ca;fill-opacity:0.69803922;fill-rule:evenodd;stroke:none;stroke-width:1px;stroke-linecap:butt;stroke-linejoin:miter;stroke-opacity:0.77865613"
       d="M 180.42972,262.37834 C 123.27467,226.84626 57.90101,155.42349 17.744484,70.020776 C 42.004054,186.49631 97.944545,242.32318 180.42972,262.37834 z "
       id="path17055"
       sodipodi:nodetypes="ccc" />
    <path
       style="fill:#02b5ca;fill-opacity:0.69803922;fill-rule:evenodd;stroke:none;stroke-width:1px;stroke-linecap:butt;stroke-linejoin:miter;stroke-opacity:0.77865613"
       d="M 173.74867,349.13947 L 173.83477,368.26514 C 150.37131,363.97993 130.44303,344.75952 110.68915,324.80241 C 129.84569,333.28059 154.59214,349.5332 173.74867,349.13947 z "
       id="path17057"
       sodipodi:nodetypes="cccc" />
    <path
       style="fill:#02b5ca;fill-opacity:0.69803922;fill-rule:evenodd;stroke:none;stroke-width:1px;stroke-linecap:butt;stroke-linejoin:miter;stroke-opacity:0.77865613"
       d="M 215.69536,260.69254 L 230.20247,260.66979 C 203.08748,214.56972 167.74396,169.40799 119.91267,141.20976 C 46.465083,90.408489 43.074794,50.569106 16.325482,7.0747327 C 27.530606,63.774432 27.575017,122.24228 111.39865,167.43728 C 151.99367,194.86277 195.13503,223.64879 215.69536,260.69254 z "
       id="path17059"
       sodipodi:nodetypes="cccccc" />
    <path
       style="fill:#02b5ca;fill-opacity:0.69803922;fill-rule:evenodd;stroke:none;stroke-width:1px;stroke-linecap:butt;stroke-linejoin:miter;stroke-opacity:0.77865613"
       d="M 173.1468,285.72781 C 120.12536,253.10626 70.436467,236.81273 29.096514,150.57674 C 65.888973,283.34389 119.75095,284.34864 173.1468,285.72781 z "
       id="path18030"
       sodipodi:nodetypes="ccc" />
    <path
       style="fill:#02b5ca;fill-opacity:0.69803922;fill-rule:evenodd;stroke:none;stroke-width:1px;stroke-linecap:butt;stroke-linejoin:miter;stroke-opacity:0.77865613"
       d="M 173.09299,314.62928 C 132.25646,303.82596 99.761595,292.93062 55.34806,246.49452 C 98.764155,338.24124 151.62492,321.55096 173.09299,314.62928 z "
       id="path18032"
       sodipodi:nodetypes="ccc" />
    <path
       sodipodi:nodetypes="ccc"
       id="path19018"
       d="M 520.88411,262.37834 C 578.03916,226.84626 643.41282,155.42349 683.56935,70.020776 C 659.30978,186.49631 603.36929,242.32318 520.88411,262.37834 z "
       style="fill:#02b5ca;fill-opacity:0.69803922;fill-rule:evenodd;stroke:none;stroke-width:1px;stroke-linecap:butt;stroke-linejoin:miter;stroke-opacity:0.77865613" />
    <path
       sodipodi:nodetypes="cccc"
       id="path19020"
       d="M 527.56516,349.13947 L 527.47905,368.26514 C 550.94251,363.97993 570.87079,344.75952 590.62468,324.80241 C 571.46813,333.28059 546.72169,349.5332 527.56516,349.13947 z "
       style="fill:#02b5ca;fill-opacity:0.69803922;fill-rule:evenodd;stroke:none;stroke-width:1px;stroke-linecap:butt;stroke-linejoin:miter;stroke-opacity:0.77865613" />
    <path
       sodipodi:nodetypes="cccccc"
       id="path19022"
       d="M 485.61846,260.69254 L 471.11136,260.66979 C 498.22634,214.56972 533.56986,169.40799 581.40116,141.20976 C 654.84876,90.408489 658.23903,50.569106 684.98835,7.0747327 C 673.78322,63.774432 673.73881,122.24228 589.91518,167.43728 C 549.32016,194.86277 506.17879,223.64879 485.61846,260.69254 z "
       style="fill:#02b5ca;fill-opacity:0.69803922;fill-rule:evenodd;stroke:none;stroke-width:1px;stroke-linecap:butt;stroke-linejoin:miter;stroke-opacity:0.77865613" />
    <path
       sodipodi:nodetypes="ccc"
       id="path19024"
       d="M 528.16703,285.72781 C 581.18846,253.10626 630.87736,236.81273 672.21732,150.57674 C 635.42486,283.34389 581.56288,284.34864 528.16703,285.72781 z "
       style="fill:#02b5ca;fill-opacity:0.69803922;fill-rule:evenodd;stroke:none;stroke-width:1px;stroke-linecap:butt;stroke-linejoin:miter;stroke-opacity:0.77865613" />
    <path
       sodipodi:nodetypes="ccc"
       id="path19026"
       d="M 528.22084,314.62928 C 569.05737,303.82596 601.55224,292.93062 645.96578,246.49452 C 602.54969,338.24124 549.6889,321.55096 528.22084,314.62928 z "
       style="fill:#02b5ca;fill-opacity:0.69803922;fill-rule:evenodd;stroke:none;stroke-width:1px;stroke-linecap:butt;stroke-linejoin:miter;stroke-opacity:0.77865613" />
  </g>
  <g
     inkscape:groupmode="layer"
     id="layer3"
     inkscape:label="4" />
</svg>
