<?xml version="1.0" encoding="UTF-8" standalone="no"?>
<!-- Created with Inkscape (http://www.inkscape.org/) -->

<svg
   xmlns:dc="http://purl.org/dc/elements/1.1/"
   xmlns:cc="http://creativecommons.org/ns#"
   xmlns:rdf="http://www.w3.org/1999/02/22-rdf-syntax-ns#"
   xmlns:svg="http://www.w3.org/2000/svg"
   xmlns="http://www.w3.org/2000/svg"
   xmlns:xlink="http://www.w3.org/1999/xlink"
   xmlns:sodipodi="http://sodipodi.sourceforge.net/DTD/sodipodi-0.dtd"
   xmlns:inkscape="http://www.inkscape.org/namespaces/inkscape"
   width="722.5mm"
   height="361.24mm"
   viewBox="0 0 722.5 361.24"
   version="1.1"
   id="svg8"
   sodipodi:docname="9H-NYC.svg"
   inkscape:export-filename="/home/tobias/flightgear/fgdata-standalone/Aircraft/E-jet-family/raw-assets/Liveries/Lineage1000/9H-NYC-colors.png"
   inkscape:export-xdpi="72"
   inkscape:export-ydpi="72"
   inkscape:version="0.92.4 (5da689c313, 2019-01-14)">
  <defs
     id="defs2" />
  <sodipodi:namedview
     id="base"
     pagecolor="#ffffff"
     bordercolor="#666666"
     borderopacity="1.0"
     inkscape:pageopacity="0.0"
     inkscape:pageshadow="2"
     inkscape:zoom="0.41931"
     inkscape:cx="1365.4"
     inkscape:cy="939.06"
     inkscape:document-units="mm"
     inkscape:current-layer="layer1"
     showgrid="false"
     fit-margin-top="0"
     fit-margin-left="0"
     fit-margin-right="0"
     fit-margin-bottom="0"
     inkscape:snap-global="false"
     inkscape:window-width="1918"
     inkscape:window-height="1078"
     inkscape:window-x="1440"
     inkscape:window-y="0"
     inkscape:window-maximized="0" />
  <metadata
     id="metadata5">
    <rdf:RDF>
      <cc:Work
         rdf:about="">
        <dc:format>image/svg+xml</dc:format>
        <dc:type
           rdf:resource="http://purl.org/dc/dcmitype/StillImage" />
        <dc:title></dc:title>
      </cc:Work>
    </rdf:RDF>
  </metadata>
  <g
     inkscape:label="Layer 1"
     inkscape:groupmode="layer"
     id="layer1"
     transform="translate(481.07,30.275)">
    <g
       id="g920">
      <path
         sodipodi:nodetypes="ccccccc"
         inkscape:connector-curvature="0"
         id="path910"
         d="m -313.76,304.23 c 54.01,-15.49 116.73,-25.54 161.97,-26.72 52.217,-1.75 143.289,23.55 169.982,23.79 15.722,0.18 80.346,-19.52 102.078,-28.08 -22.192,10 -80.881,28.94 -101.878,30.05 -41.749,0.14 -107.107,-23.82 -170.102,-23.62 -52.15,0.72 -107.53,13.18 -162.05,24.58 z"
         style="fill:#d1a63e;fill-opacity:1;stroke:none;stroke-width:0.26458px;stroke-linecap:butt;stroke-linejoin:miter;stroke-opacity:1" />
      <path
         style="fill:#05396e;fill-opacity:1;stroke:none;stroke-width:0.26458px;stroke-linecap:butt;stroke-linejoin:miter;stroke-opacity:1"
         d="m -313.76,306.88 c 54.39,-13.5 116.73,-23.95 161.97,-25.13 52.217,-1.75 143.289,23.55 169.982,23.79 15.722,0.18 80.346,-19.52 102.078,-28.08 -22.192,10 -80.881,28.94 -101.878,30.05 -41.749,0.14 -107.107,-23.82 -170.102,-23.62 -52.15,0.72 -107.44,13.2 -162.05,22.99 z"
         id="path912"
         inkscape:connector-curvature="0"
         sodipodi:nodetypes="ccccccc" />
    </g>
    <rect
       style="opacity:1;fill:#05396e;fill-opacity:1;stroke:none;stroke-width:0.52916;stroke-linecap:butt;stroke-miterlimit:4;stroke-dasharray:none;stroke-opacity:1"
       id="rect914"
       width="133.8"
       height="117.55"
       x="-296.62"
       y="-26.601" />
    <rect
       y="-25.467"
       x="-105.36"
       height="117.55"
       width="133.8"
       id="rect916"
       style="opacity:1;fill:#05396e;fill-opacity:1;stroke:none;stroke-width:0.52916;stroke-linecap:butt;stroke-miterlimit:4;stroke-dasharray:none;stroke-opacity:1" />
    <g
       id="g926"
       transform="matrix(-1,0,0,1,-257.56,-146.58)">
      <path
         style="fill:#d1a63e;fill-opacity:1;stroke:none;stroke-width:0.26458px;stroke-linecap:butt;stroke-linejoin:miter;stroke-opacity:1"
         d="m -313.76,304.23 c 54.01,-15.49 116.73,-25.54 161.97,-26.72 52.217,-1.75 143.289,23.55 169.982,23.79 15.722,0.18 80.346,-19.52 102.078,-28.08 -22.192,10 -80.881,28.94 -101.878,30.05 -41.749,0.14 -107.107,-23.82 -170.102,-23.62 -52.15,0.72 -107.53,13.18 -162.05,24.58 z"
         id="path922"
         inkscape:connector-curvature="0"
         sodipodi:nodetypes="ccccccc" />
      <path
         sodipodi:nodetypes="ccccccc"
         inkscape:connector-curvature="0"
         id="path924"
         d="m -313.76,306.88 c 54.39,-13.5 116.73,-23.95 161.97,-25.13 52.217,-1.75 143.289,23.55 169.982,23.79 15.722,0.18 80.346,-19.52 102.078,-28.08 -22.192,10 -80.881,28.94 -101.878,30.05 -41.749,0.14 -107.107,-23.82 -170.102,-23.62 -52.15,0.72 -107.44,13.2 -162.05,22.99 z"
         style="fill:#05396e;fill-opacity:1;stroke:none;stroke-width:0.26458px;stroke-linecap:butt;stroke-linejoin:miter;stroke-opacity:1" />
    </g>
    <g
       id="g962">
      <path
         inkscape:connector-curvature="0"
         id="path949"
         d="M 113.09,45.482 C 98.066,45.452 80.339,47.35 62.083,50.086 v 2.55 c 18.389,-2.926 37.253,-4.987 55.947,-4.926 6.54,0.09 13.15,0.365 19.8,0.799 V 46.58 c -6.86,-0.5 -13.47,-0.846 -19.72,-1.01 -1.64,-0.06 -3.3,-0.08 -5.02,-0.09 z"
         style="fill:#05396e;fill-opacity:1;stroke:none;stroke-width:0.26458px;stroke-linecap:butt;stroke-linejoin:miter;stroke-opacity:1" />
      <path
         style="fill:#d1a63e;fill-opacity:1;stroke:none;stroke-width:0.26458px;stroke-linecap:butt;stroke-linejoin:miter;stroke-opacity:1"
         d="M 113.09,40.19 C 98.066,40.16 80.339,42.058 62.083,44.794 v 2.55 c 18.389,-2.926 37.253,-4.987 55.947,-4.926 6.54,0.09 13.15,0.365 19.8,0.799 v -1.929 c -6.86,-0.5 -13.47,-0.846 -19.72,-1.01 -1.64,-0.06 -3.3,-0.08 -5.02,-0.09 z"
         id="path958"
         inkscape:connector-curvature="0" />
    </g>
    <g
       id="g968"
       transform="matrix(-1,0,0,1,268.17,33.339)">
      <path
         style="fill:#05396e;fill-opacity:1;stroke:none;stroke-width:0.26458px;stroke-linecap:butt;stroke-linejoin:miter;stroke-opacity:1"
         d="M 113.09,45.482 C 98.066,45.452 80.339,47.35 62.083,50.086 v 2.55 c 18.389,-2.926 37.253,-4.987 55.947,-4.926 6.54,0.09 13.15,0.365 19.8,0.799 V 46.58 c -6.86,-0.5 -13.47,-0.846 -19.72,-1.01 -1.64,-0.06 -3.3,-0.08 -5.02,-0.09 z"
         id="path964"
         inkscape:connector-curvature="0" />
      <path
         inkscape:connector-curvature="0"
         id="path966"
         d="M 113.09,40.19 C 98.066,40.16 80.339,42.058 62.083,44.794 v 2.55 c 18.389,-2.926 37.253,-4.987 55.947,-4.926 6.54,0.09 13.15,0.365 19.8,0.799 v -1.929 c -6.86,-0.5 -13.47,-0.846 -19.72,-1.01 -1.64,-0.06 -3.3,-0.08 -5.02,-0.09 z"
         style="fill:#d1a63e;fill-opacity:1;stroke:none;stroke-width:0.26458px;stroke-linecap:butt;stroke-linejoin:miter;stroke-opacity:1" />
    </g>
    <image
       sodipodi:absref="/home/tobias/flightgear/fgdata-standalone/Aircraft/E-jet-family/raw-assets/Liveries/Lineage1000/9H-NYC-gridlines.png"
       xlink:href="9H-NYC-gridlines.png"
       width="722.5"
       height="361.24"
       preserveAspectRatio="none"
       style="image-rendering:optimizeQuality"
       id="image1029"
       x="-481.07"
       y="-30.275" />
  </g>
</svg>
