<?xml version="1.0" encoding="UTF-8" standalone="no"?>
<svg
   xmlns:dc="http://purl.org/dc/elements/1.1/"
   xmlns:cc="http://creativecommons.org/ns#"
   xmlns:rdf="http://www.w3.org/1999/02/22-rdf-syntax-ns#"
   xmlns:svg="http://www.w3.org/2000/svg"
   xmlns="http://www.w3.org/2000/svg"
   xmlns:xlink="http://www.w3.org/1999/xlink"
   xmlns:sodipodi="http://sodipodi.sourceforge.net/DTD/sodipodi-0.dtd"
   xmlns:inkscape="http://www.inkscape.org/namespaces/inkscape"
   width="722.5mm"
   height="361.24mm"
   viewBox="0 0 722.5 361.24"
   version="1.1"
   id="svg8"
   sodipodi:docname="D-ANNI.svg"
   inkscape:export-filename="/home/tobias/flightgear/fgdata-standalone/Aircraft/E-jet-family/raw-assets/Liveries/Lineage1000/D-ANNI-colors.png"
   inkscape:export-xdpi="72"
   inkscape:export-ydpi="72"
   inkscape:version="1.0.2 (e86c870879, 2021-01-15)">
  <defs
     id="defs2" />
  <sodipodi:namedview
     id="base"
     pagecolor="#ffffff"
     bordercolor="#666666"
     borderopacity="1.0"
     inkscape:pageopacity="0.0"
     inkscape:pageshadow="2"
     inkscape:zoom="0.59299389"
     inkscape:cx="1946.8276"
     inkscape:cy="804.80725"
     inkscape:document-units="mm"
     inkscape:current-layer="layer1"
     showgrid="false"
     fit-margin-top="0"
     fit-margin-left="0"
     fit-margin-right="0"
     fit-margin-bottom="0"
     inkscape:snap-global="false"
     inkscape:window-width="1440"
     inkscape:window-height="886"
     inkscape:window-x="0"
     inkscape:window-y="14"
     inkscape:window-maximized="1"
     inkscape:document-rotation="0" />
  <metadata
     id="metadata5">
    <rdf:RDF>
      <cc:Work
         rdf:about="">
        <dc:format>image/svg+xml</dc:format>
        <dc:type
           rdf:resource="http://purl.org/dc/dcmitype/StillImage" />
        <dc:title></dc:title>
      </cc:Work>
    </rdf:RDF>
  </metadata>
  <g
     inkscape:label="Layer 1"
     inkscape:groupmode="layer"
     id="layer1"
     transform="translate(481.07,30.275)"
     style="display:inline">
    <g
       id="g1096">
      <path
         id="path1086"
         style="fill:#d4aa00;stroke:none;stroke-width:0.264583px;stroke-linecap:butt;stroke-linejoin:miter;stroke-opacity:1"
         d="m 78.418812,136.91506 c -40.956535,-9.97973 -98.492399,-6.93912 -143.006346,-7.7534 -30.03674,-0.54946 -73.899046,-0.29054 -104.436706,2.36765 -33.31941,2.90033 -65.88398,4.24317 -98.99794,6.07987 -18.84787,1.04542 -50.83322,-6.18413 -68.12227,-14.57391 -27.99814,-13.58654 -45.68144,-26.185656 -67.1391,-48.843152 -24.7145,-26.096444 -53.55399,-52.025549 -69.83134,-84.576113 v 32.808334 c 13.62651,23.871894 41.78375,54.691942 69.83134,77.167782 25.00097,20.034439 38.10199,21.772819 67.1391,32.968179 19.21468,7.40828 49.2744,10.32766 68.12227,9.28224 33.11396,-1.8367 65.67853,-3.17954 98.99794,-6.07987 30.53766,-2.65819 74.399477,-2.8897 104.436706,-2.36765 45.576462,0.79212 102.049811,-2.22633 143.006346,7.7534 30.110838,7.337 49.546148,9.77101 73.467948,20.57929 -23.79457,-15.07976 -43.35711,-17.47565 -73.467948,-24.81265 z"
         sodipodi:nodetypes="ssssssccsssssscs" />
      <path
         id="path1089"
         style="fill:#5fbcd3;stroke:none;stroke-width:0.264583px;stroke-linecap:butt;stroke-linejoin:miter;stroke-opacity:1"
         d="m 78.418812,142.7359 c -40.999886,-9.80011 -98.492399,-6.40995 -143.006346,-7.22423 -30.03674,-0.54946 -73.899046,-0.29054 -104.436706,2.36765 -33.31941,2.90033 -65.88398,4.24317 -98.99794,6.07987 -18.84787,1.04542 -61.19357,-5.14979 -78.7056,-11.39891 -29.31029,-10.45929 -47.13611,-20.64779 -67.05114,-38.302601 -26.89521,-23.842786 -43.05862,-33.991109 -59.33597,-66.541674 v 28.575002 c 16.87043,19.400091 29.74987,34.850215 59.53253,54.970453 20.93403,14.14238 42.1508,20.56203 66.65894,28.20574 19.65939,6.13146 60.05337,9.77077 78.90124,8.72535 33.11396,-1.8367 65.67853,-3.17954 98.99794,-6.07987 30.53766,-2.65819 74.399477,-2.8897 104.436706,-2.36765 45.576462,0.79212 101.335762,0.85279 143.006346,7.22423 24.216458,3.7027 49.546148,7.65435 73.467948,18.46263 -23.79457,-15.07976 -49.47,-16.95982 -73.467948,-22.69599 z"
         sodipodi:nodetypes="ssssssccsssssscs" />
      <path
         id="path1091"
         style="fill:#800000;stroke:none;stroke-width:0.264583px;stroke-linecap:butt;stroke-linejoin:miter;stroke-opacity:1"
         d="m 78.418812,148.55674 c -24.967117,-5.00589 -98.492399,-5.88078 -143.006346,-6.69506 -30.03674,-0.54946 -73.899046,-0.29054 -104.436706,2.36765 -33.31941,2.90033 -65.88398,4.24317 -98.99794,6.07987 -18.84787,1.04542 -59.31696,-3.28995 -77.25023,-7.57583 -30.26816,-7.2338 -46.07996,-13.44216 -68.72742,-28.94992 -29.65583,-20.306716 -39.01744,-28.111335 -59.30041,-54.413388 l -0.25446,23.171942 c 16.87043,19.400096 32.73889,27.122956 56.57091,40.810946 21.90714,12.58244 45.75991,19.23254 70.25601,25.08237 20.03013,4.78333 59.85773,7.15266 78.7056,6.10724 33.11396,-1.8367 65.67853,-3.17954 98.99794,-6.07987 30.53766,-2.65819 74.399477,-2.8897 104.436706,-2.36765 45.576462,0.79212 121.504867,2.51274 143.006346,6.69506 16.12159,3.13586 49.546148,4.47935 73.467948,15.28763 -23.79457,-15.07976 -56.774126,-16.17389 -73.467948,-19.52099 z"
         sodipodi:nodetypes="ssssssccsssssscs" />
    </g>
    <g
       id="g1104"
       transform="matrix(-1,0,0,1,-253.92536,145.22839)">
      <path
         id="path1098"
         style="fill:#d4aa00;stroke:none;stroke-width:0.264583px;stroke-linecap:butt;stroke-linejoin:miter;stroke-opacity:1"
         d="m 78.418812,136.91506 c -40.956535,-9.97973 -98.492399,-6.93912 -143.006346,-7.7534 -30.03674,-0.54946 -73.899046,-0.29054 -104.436706,2.36765 -33.31941,2.90033 -65.88398,4.24317 -98.99794,6.07987 -18.84787,1.04542 -50.83322,-6.18413 -68.12227,-14.57391 -27.99814,-13.58654 -45.68144,-26.185656 -67.1391,-48.843152 -24.7145,-26.096444 -53.55399,-52.025549 -69.83134,-84.576113 v 32.808334 c 13.62651,23.871894 41.78375,54.691942 69.83134,77.167782 25.00097,20.034439 38.10199,21.772819 67.1391,32.968179 19.21468,7.40828 49.2744,10.32766 68.12227,9.28224 33.11396,-1.8367 65.67853,-3.17954 98.99794,-6.07987 30.53766,-2.65819 74.399477,-2.8897 104.436706,-2.36765 45.576462,0.79212 102.049811,-2.22633 143.006346,7.7534 30.110838,7.337 49.546148,9.77101 73.467948,20.57929 -23.79457,-15.07976 -43.35711,-17.47565 -73.467948,-24.81265 z"
         sodipodi:nodetypes="ssssssccsssssscs" />
      <path
         id="path1100"
         style="fill:#5fbcd3;stroke:none;stroke-width:0.264583px;stroke-linecap:butt;stroke-linejoin:miter;stroke-opacity:1"
         d="m 78.418812,142.7359 c -40.999886,-9.80011 -98.492399,-6.40995 -143.006346,-7.22423 -30.03674,-0.54946 -73.899046,-0.29054 -104.436706,2.36765 -33.31941,2.90033 -65.88398,4.24317 -98.99794,6.07987 -18.84787,1.04542 -61.19357,-5.14979 -78.7056,-11.39891 -29.31029,-10.45929 -47.13611,-20.64779 -67.05114,-38.302601 -26.89521,-23.842786 -43.05862,-33.991109 -59.33597,-66.541674 v 28.575002 c 16.87043,19.400091 29.74987,34.850215 59.53253,54.970453 20.93403,14.14238 42.1508,20.56203 66.65894,28.20574 19.65939,6.13146 60.05337,9.77077 78.90124,8.72535 33.11396,-1.8367 65.67853,-3.17954 98.99794,-6.07987 30.53766,-2.65819 74.399477,-2.8897 104.436706,-2.36765 45.576462,0.79212 101.335762,0.85279 143.006346,7.22423 24.216458,3.7027 49.546148,7.65435 73.467948,18.46263 -23.79457,-15.07976 -49.47,-16.95982 -73.467948,-22.69599 z"
         sodipodi:nodetypes="ssssssccsssssscs" />
      <path
         id="path1102"
         style="fill:#800000;stroke:none;stroke-width:0.264583px;stroke-linecap:butt;stroke-linejoin:miter;stroke-opacity:1"
         d="m 78.418812,148.55674 c -24.967117,-5.00589 -98.492399,-5.88078 -143.006346,-6.69506 -30.03674,-0.54946 -73.899046,-0.29054 -104.436706,2.36765 -33.31941,2.90033 -65.88398,4.24317 -98.99794,6.07987 -18.84787,1.04542 -59.31696,-3.28995 -77.25023,-7.57583 -30.26816,-7.2338 -46.07996,-13.44216 -68.72742,-28.94992 -29.65583,-20.306716 -39.01744,-28.111335 -59.30041,-54.413388 l -0.25446,23.171942 c 16.87043,19.400096 32.73889,27.122956 56.57091,40.810946 21.90714,12.58244 45.75991,19.23254 70.25601,25.08237 20.03013,4.78333 59.85773,7.15266 78.7056,6.10724 33.11396,-1.8367 65.67853,-3.17954 98.99794,-6.07987 30.53766,-2.65819 74.399477,-2.8897 104.436706,-2.36765 45.576462,0.79212 121.504867,2.51274 143.006346,6.69506 16.12159,3.13586 49.546148,4.47935 73.467948,15.28763 -23.79457,-15.07976 -56.774126,-16.17389 -73.467948,-19.52099 z"
         sodipodi:nodetypes="ssssssccsssssscs" />
    </g>
    <text
       xml:space="preserve"
       style="font-size:9.525px;line-height:1.25;font-family:sans-serif;-inkscape-font-specification:sans-serif;letter-spacing:0px;word-spacing:0px;stroke-width:0.264583"
       x="-315.40613"
       y="117.9505"
       id="text1108"><tspan
         sodipodi:role="line"
         id="tspan1106"
         x="-315.40613"
         y="117.9505"
         style="font-weight:normal;font-size:9.525px;stroke-width:0.264583">D-ANNI</tspan></text>
    <text
       xml:space="preserve"
       style="font-size:9.525px;line-height:1.25;font-family:sans-serif;-inkscape-font-specification:sans-serif;letter-spacing:0px;word-spacing:0px;stroke-width:0.264583"
       x="27.05921"
       y="264.31128"
       id="text1112"><tspan
         sodipodi:role="line"
         id="tspan1110"
         x="27.05921"
         y="264.31128"
         style="font-weight:normal;font-size:9.525px;stroke-width:0.264583">D-ANNI</tspan></text>
  </g>
  <g
     inkscape:groupmode="layer"
     id="layer2"
     inkscape:label="Background"
     sodipodi:insensitive="true"
     style="display:none">
    <image
       sodipodi:absref="/home/tobias/flightgear/fgdata-standalone/Aircraft/E-jet-family/raw-assets/Liveries/Lineage1000/9H-NYC-gridlines.png"
       xlink:href="9H-NYC-gridlines.png"
       width="722.5"
       height="361.23999"
       preserveAspectRatio="none"
       style="display:inline;image-rendering:optimizeQuality"
       id="image1029"
       x="2.8421709e-14"
       y="2.8421709e-14" />
  </g>
</svg>
